<svg id="图层_1" xmlns="http://www.w3.org/2000/svg" viewBox="0 0 1169.87 588.46"><defs><style>.cls-1,.cls-2,.cls-3,.cls-4{fill:none;}.cls-1{stroke:#858585;stroke-miterlimit:10;}.cls-2{stroke:#b8b8b8;}.cls-4{stroke:#979797;}.cls-12,.cls-5,.cls-6{isolation:isolate;font-size:12px;}.cls-5{font-family:AdobeSongStd-Light-GBpc-EUC-H, Adobe Song Std;}.cls-12,.cls-6{font-family:ArialMT, Arial;}.cls-7{letter-spacing:-0.04em;}.cls-8{letter-spacing:-0.02em;}.cls-9{letter-spacing:-0.11em;}.cls-10{letter-spacing:-0.07em;}.cls-11{letter-spacing:-0.06em;}.cls-12,.cls-13{fill:#404040;}</style></defs><path class="cls-1" d="M919.5,471.8,862.1,555Z" transform="translate(-389.1 -107.44)"/><path class="cls-2" d="M1407.1,365.8l-14.5,92.8-78,75.9-149-54.9" transform="translate(-389.1 -107.44)"/><line class="cls-3" x1="525" y1="117.56" x2="444" y2="20.36"/><line class="cls-4" x1="280" y1="344.56" x2="925.5" y2="427.06"/><path class="cls-4" d="M584.1,369l-81-88m81,88,47-88-77-55" transform="translate(-389.1 -107.44)"/><path class="cls-4" d="M644.1,226l-13,55m-47,88,85,83-25,83m25-83,87,63m73-146-160,83m160-83,91,103,106,58" transform="translate(-389.1 -107.44)"/><path class="cls-4" d="M920.1,472l182-103m-182,103-9,161m-242-181,58,124m-58-124-3,233m3-233-217-2m217,2-233,63-42,38m520-328,96-4" transform="translate(-389.1 -107.44)"/><path class="cls-4" d="M669.1,452l-247,147m247-147,40,181" transform="translate(-389.1 -107.44)"/><path class="cls-4" d="M669.1,452l151,234m-151-234-260,223m260-223-122-287-44,116" transform="translate(-389.1 -107.44)"/><path class="cls-4" d="M829.1,369l85-144" transform="translate(-389.1 -107.44)"/><path class="cls-4" d="M1102.1,369l62-79-15-120m16,120,107-68m-44-110-63,177" transform="translate(-389.1 -107.44)"/><path class="cls-4" d="M1392.6,457.5l86,148m-72-239,66-111,20-91M1423.1,152l-16.5,214.5-66-89,29-79" transform="translate(-389.1 -107.44)"/><path class="cls-4" d="M669.1,452l-95,121" transform="translate(-389.1 -107.44)"/><path class="cls-4" d="M564.1,626l105-174,326,211" transform="translate(-389.1 -107.44)"/><line class="cls-4" x1="158" y1="57.56" x2="255" y2="116.56"/><path class="cls-2" d="M1276.3,317.7l130.9,48.8" transform="translate(-389.1 -107.44)"/><text class="cls-5" transform="translate(208.01 267.56)">网站前端</text><circle cx="194" cy="261.56" r="4"/><text class="cls-5" transform="translate(726.01 267.56)">人工智能</text><circle cx="712" cy="261.56" r="4"/><text class="cls-5" transform="translate(453.01 267.56)">服务器</text><circle cx="439" cy="261.56" r="4"/><text class="cls-6" transform="translate(634.01 255.06)">AR/VR</text><circle cx="620" cy="249.06" r="4"/><text class="cls-5" transform="translate(1031.51 265.06)">数据库</text><circle cx="1017.5" cy="259.06" r="4"/><text class="cls-6" transform="translate(293.01 350.56)">JavaScript</text><circle cx="279" cy="344.56" r="4"/><text class="cls-6" transform="translate(255.01 179.56)">CSS</text><circle cx="241" cy="173.56" r="4"/><text class="cls-6" transform="translate(126.01 178.56)">HTM<tspan class="cls-7" x="25.99" y="0">L</tspan></text><circle cx="112" cy="172.56" r="4"/><text class="cls-6" transform="translate(544.01 370.56)">Python</text><circle cx="530" cy="364.56" r="4"/><text class="cls-6" transform="translate(790.51 378.06)">C++</text><circle cx="776.5" cy="372.06" r="4"/><text class="cls-6" transform="translate(617.01 181.56)">PH<tspan class="cls-8" x="16.67" y="0">P</tspan></text><circle cx="603" cy="175.56" r="4"/><text class="cls-6" transform="translate(412.01 124.56)">Docker</text><circle cx="398" cy="118.56" r="4"/><text class="cls-6" transform="translate(358.01 79.56)">Kubernetes</text><circle cx="344" cy="73.56" r="4"/><text class="cls-6" transform="translate(538.01 123.56)">Nginx</text><circle cx="524" cy="117.56" r="4"/><text class="cls-6" transform="translate(532.01 69.56)">Apache</text><circle cx="518" cy="63.56" r="4"/><text class="cls-6" transform="translate(650.01 428.56)">Flask</text><circle cx="636" cy="422.56" r="4"/><text class="cls-6" transform="translate(589.01 482.56)">Django</text><circle cx="575" cy="476.56" r="4"/><text class="cls-5" transform="translate(789.01 187.56)">机器学习</text><circle cx="775" cy="181.56" r="4"/><text class="cls-5" transform="translate(965.51 176.06)">缓存策略</text><circle cx="951.5" cy="170.06" r="4"/><text class="cls-5" transform="translate(773.01 68.56)">图像分类</text><circle cx="759" cy="62.56" r="4"/><text class="cls-5" transform="translate(852.01 10.56)">图像识别</text><circle cx="838" cy="4.56" r="4"/><text class="cls-6" transform="translate(896.01 120.56)"><tspan class="cls-9">T</tspan><tspan x="6" y="0">ensorFlow</tspan></text><circle cx="882" cy="114.56" r="4"/><text class="cls-5" transform="translate(487.01 453.56)">爬虫</text><circle cx="473" cy="447.56" r="4"/><text class="cls-6" transform="translate(634.01 119.56)"><tspan class="cls-8">W</tspan><tspan x="11.11" y="0">ordPress</tspan></text><circle cx="620" cy="113.56" r="4"/><text class="cls-6" transform="translate(268.01 433.56)"><tspan class="cls-7">V</tspan><tspan x="7.56" y="0">ue.js</tspan></text><circle cx="254" cy="427.56" r="4"/><text class="cls-6" transform="translate(198.01 471.56)">D3.js</text><circle cx="184" cy="465.56" r="4"/><text class="cls-6" transform="translate(178.01 124.56)">SCSS</text><circle cx="164" cy="118.56" r="4"/><text class="cls-6" transform="translate(268.01 122.56)">LESS</text><circle cx="254" cy="116.56" r="4"/><text class="cls-6" transform="translate(171.01 63.56)">Bootstrap</text><circle cx="157" cy="57.56" r="4"/><text class="cls-6" transform="translate(380.01 413.56)">NodeJS</text><circle cx="366" cy="407.56" r="4"/><text class="cls-6" transform="translate(290.01 583.56)">NPM</text><circle cx="276" cy="577.56" r="4"/><text class="cls-6" transform="translate(444.01 584.56)">SVG</text><circle cx="430" cy="578.56" r="4"/><text class="cls-6" transform="translate(535.01 531.56)">PI<tspan class="cls-8" x="11.34" y="0">P</tspan></text><circle cx="521" cy="525.56" r="4"/><text class="cls-6" transform="translate(189.01 524.56)">Electron</text><circle cx="175" cy="518.56" r="4"/><text class="cls-6" transform="translate(46.01 497.56)">jQuery</text><circle cx="32" cy="491.56" r="4"/><text class="cls-6" transform="translate(60.01 413.56)"><tspan class="cls-8">W</tspan><tspan x="11.11" y="0">ebpack</tspan></text><circle cx="46" cy="407.56" r="4"/><text class="cls-6" transform="translate(18.01 451.56)">Three.js</text><circle cx="4" cy="445.56" r="4"/><text class="cls-6" transform="translate(29.01 201.56)"><tspan class="cls-10">Y</tspan><tspan x="7.11" y="0">arn</tspan></text><circle cx="15" cy="195.56" r="4"/><text class="cls-6" transform="translate(76.01 348.56)"><tspan class="cls-8">W</tspan><tspan x="11.11" y="0">ebG</tspan><tspan class="cls-7" x="33.79" y="0">L</tspan></text><circle cx="62" cy="342.56" r="4"/><text class="cls-6" transform="translate(717.01 343.56)">Unity</text><circle cx="703" cy="337.56" r="4"/><text class="cls-6" transform="translate(1097.51 154.06)">NoSQ<tspan class="cls-7" x="32.68" y="0">L</tspan></text><circle cx="1083.5" cy="148.06" r="4"/><text class="cls-6" transform="translate(1116.51 64.06)">MongoDB</text><circle cx="1102.5" cy="58.06" r="4"/><text class="cls-6" transform="translate(1103.51 504.06)">Access</text><circle cx="1089.5" cy="498.06" r="4"/><text class="cls-5" transform="translate(1017.51 356.06)">关系型数据库</text><circle cx="1003.5" cy="350.06" r="4"/><text class="cls-6" transform="translate(939.51 432.94)">MySQ<tspan class="cls-7" x="33.33" y="0">L</tspan></text><circle cx="925.5" cy="427.06" r="4"/><text class="cls-6" transform="translate(994.51 97.06)">Redis</text><circle cx="980.5" cy="91.06" r="4"/><text class="cls-6" transform="translate(458.01 26.56)">Linux</text><circle cx="444" cy="20.56" r="4"/><text class="cls-6" transform="translate(46.01 88.56)">XM<tspan class="cls-7" x="18" y="0">L</tspan></text><circle cx="32" cy="82.56" r="4"/><text class="cls-6" transform="translate(50.01 146.56)"><tspan class="cls-11">T</tspan><tspan x="6.67" y="0">ypeScript</tspan></text><circle cx="36" cy="140.56" r="4"/><text class="cls-6" transform="translate(1048.01 50.56)">Git</text><circle cx="1034" cy="44.56" r="4"/><text class="cls-6" transform="translate(619.01 561.56)">JSON</text><circle cx="605" cy="555.56" r="4"/><text class="cls-5" transform="translate(33.01 573.56)">微信小程序</text><circle cx="19" cy="567.56" r="4"/><text class="cls-6" transform="translate(351.01 474.56)">React</text><circle cx="337" cy="468.56" r="4"/><text class="cls-6" transform="translate(333.01 531.56)">GSA<tspan class="cls-8" x="25.34" y="0">P</tspan></text><circle cx="319" cy="525.56" r="4"/><text class="cls-5" transform="translate(370.01 175.56)">容器化</text><circle cx="356" cy="169.56" r="4"/><path class="cls-4" d="M1242.4,422.8" transform="translate(-389.1 -107.44)"/><path class="cls-4" d="M1279.7,317.7" transform="translate(-389.1 -107.44)"/><text class="cls-12" transform="translate(900.37 214.24)">SVN</text><circle class="cls-13" cx="887" cy="210.26" r="4"/><path class="cls-13" d="M1276.1,317.7" transform="translate(-389.1 -107.44)"/><line class="cls-3" x1="887" y1="210.26" x2="1018" y2="258.36"/></svg>
