<?xml version="1.0" standalone="no"?>
  <!DOCTYPE svg PUBLIC "-//W3C//DTD SVG 1.1//EN" "http://www.w3.org/Graphics/SVG/1.1/DTD/svg11.dtd" >
  <svg>
  <metadata>
  Created by font-carrier
  </metadata>
  <defs>
  <font id="Abel-Regular" horiz-adv-x="2048" vert-adv-y="2048" >
    <font-face
      
      font-family="Abel"
      
      font-weight="400"
      
      font-stretch="normal"
      
      units-per-em="2048"
      
      ascent="2006"
      
      descent="-604"
      
    />
      <missing-glyph />

      

      
      <glyph glyph-name="uni21" unicode="&#x21;" d="M250 434L178 434L123 1434L305 1434L250 434M137 0L137 154L291 154L291 0L137 0Z"  horiz-adv-x="428" vert-adv-y="2048"  />

      
      <glyph glyph-name="uni22" unicode="&#x22;" d="M225 993L174 993L123 1434L276 1434L225 993M471 993L420 993L369 1434L522 1434L471 993Z"  horiz-adv-x="645" vert-adv-y="2048"  />

      
      <glyph glyph-name="uni23" unicode="&#x23;" d="M164 1069L399 1069L430 1434L551 1434L520 1069L852 1069L883 1434L1004 1434L973 1069L1188 1069L1188 967L963 967L922 467L1147 467L1147 365L911 365L881 0L760 0L791 365L459 365L428 0L307 0L338 365L123 365L123 467L348 467L389 967L164 967L164 1069M469 467L801 467L842 967L510 967L469 467Z"  horiz-adv-x="1311" vert-adv-y="2048"  />

      
      <glyph glyph-name="uni24" unicode="&#x24;" d="M492-246L492-20Q420-19 356 8.50Q292 36 245 83.50Q198 131 170.50 195Q143 259 143 332L143 389L272 410L272 332Q272 285 289 244Q306 203 336 172Q366 141 406 122.50Q446 104 492 102L492 684Q426 708 363.50 736.50Q301 765 252 809Q203 853 173 917Q143 981 143 1075L143 1102Q143 1174 170.50 1237.50Q198 1301 245 1349Q292 1397 356 1425Q420 1453 492 1454L492 1638L594 1638L594 1454Q665 1453 728 1424.50Q791 1396 838 1348.50Q885 1301 912.50 1237.50Q940 1174 940 1102L940 1065L811 1044L811 1102Q811 1148 794 1189Q777 1230 748 1260.50Q719 1291 679 1310Q639 1329 594 1331L594 776Q659 751 723 721Q787 691 837.50 646Q888 601 919 535.50Q950 470 950 375L950 332Q950 259 922.50 195Q895 131 847 83Q799 35 735 7.50Q671-20 598-20L594-20L594-246L492-246M821 375Q821 432 803 474.50Q785 517 754.50 548.50Q724 580 682.50 603Q641 626 594 645L594 102Q641 102 682.50 120Q724 138 754.50 169.50Q785 201 803 242.50Q821 284 821 332L821 375L821 375M272 1075Q272 1022 289 982.50Q306 943 336 913Q366 883 406 860Q446 837 492 817L492 1331Q446 1329 406 1310Q366 1291 336 1260.50Q306 1230 289 1189Q272 1148 272 1102L272 1075L272 1075Z"  horiz-adv-x="1063" vert-adv-y="2048"  />

      
      <glyph glyph-name="uni25" unicode="&#x25;" d="M528 915Q528 879 514.50 846.50Q501 814 477 790Q453 766 420.50 751.50Q388 737 350 737L322 737Q284 737 251.50 751.50Q219 766 195 790Q171 814 157 846.50Q143 879 143 915L143 1264Q143 1300 157 1332.50Q171 1365 195 1389Q219 1413 251.50 1427.50Q284 1442 322 1442L350 1442Q388 1442 420.50 1427.50Q453 1413 477 1389Q501 1365 514.50 1332.50Q528 1300 528 1264L528 915L528 915M430 1264Q430 1281 423.50 1296Q417 1311 405.50 1322Q394 1333 379 1339.50Q364 1346 346 1346L326 1346Q308 1346 293 1339.50Q278 1333 266.50 1322Q255 1311 248.50 1296Q242 1281 242 1264L242 915Q242 881 266.50 857.50Q291 834 326 834L346 834Q381 834 405.50 857.50Q430 881 430 915L430 1264M1239 170Q1239 134 1225.50 101.50Q1212 69 1188 45Q1164 21 1131.50 6.50Q1099-8 1061-8L1032-8Q995-8 962.50 6.50Q930 21 906 45Q882 69 868 101.50Q854 134 854 170L854 518Q854 554 868 586.50Q882 619 906 643Q930 667 962.50 681.50Q995 696 1032 696L1061 696Q1099 696 1131.50 681.50Q1164 667 1188 643Q1212 619 1225.50 586.50Q1239 554 1239 518L1239 170L1239 170M1141 518Q1141 535 1134.50 550Q1128 565 1116.50 576Q1105 587 1090 593.50Q1075 600 1057 600L1036 600Q1018 600 1003 593.50Q988 587 976.50 576Q965 565 958.50 550Q952 535 952 518L952 170Q952 153 958.50 138Q965 123 976.50 112Q988 101 1003 94.50Q1018 88 1036 88L1057 88Q1075 88 1090 94.50Q1105 101 1116.50 112Q1128 123 1134.50 138Q1141 153 1141 170L1141 518M225 0L1042 1434L1157 1434L340 0L225 0Z"  horiz-adv-x="1382" vert-adv-y="2048"  />

      
      <glyph glyph-name="uni26" unicode="&#x26;" d="M1092-20Q1005-20 940.50 17Q876 54 838 117Q788 54 715 17Q642-20 557-20L496-20Q423-20 358.50 7.50Q294 35 246 83Q198 131 170.50 195Q143 259 143 332L143 410Q143 461 156.50 507.50Q170 554 195 594Q220 634 254 666.50Q288 699 330 721Q288 743 254 775.50Q220 808 195 848Q170 888 156.50 934.50Q143 981 143 1032L143 1102Q143 1175 170.50 1239Q198 1303 246 1351Q294 1399 358.50 1426.50Q423 1454 496 1454L557 1454Q630 1454 694 1426.50Q758 1399 806 1351Q854 1303 881.50 1239Q909 1175 909 1102L909 1092L780 1071L780 1102Q780 1150 762 1191.50Q744 1233 713 1264Q682 1295 640.50 1313Q599 1331 551 1331L502 1331Q454 1331 412.50 1313Q371 1295 339.50 1264Q308 1233 290 1191.50Q272 1150 272 1102L272 1012Q272 964 290 922.50Q308 881 339.50 849.50Q371 818 412.50 800Q454 782 502 782L780 782L780 913L909 934L909 784L1108 784L1108 662L909 662L909 317Q911 272 923 233Q935 194 958.50 164.50Q982 135 1017 118.50Q1052 102 1098 102L1128 102L1110-20L1092-20M551 102Q597 102 638 119Q679 136 709.50 166Q740 196 759 236Q778 276 780 322L780 659L502 659Q454 659 412.50 641Q371 623 339.50 592Q308 561 290 519.50Q272 478 272 430L272 332Q272 284 290 242.50Q308 201 339.50 169.50Q371 138 412.50 120Q454 102 502 102L551 102L551 102Z"  horiz-adv-x="1272" vert-adv-y="2048"  />

      
      <glyph glyph-name="uni27" unicode="&#x27;" d="M195 993L143 993L143 1434L297 1434L195 993Z"  horiz-adv-x="399" vert-adv-y="2048"  />

      
      <glyph glyph-name="uni28" unicode="&#x28;" d="M123 598Q123 765 155 909Q187 1053 244 1177.50Q301 1302 379.50 1408.50Q458 1515 551 1606L623 1534Q541 1449 471.50 1346Q402 1243 352 1124.50Q302 1006 274 874Q246 742 246 598Q246 454 274 322Q302 190 352 71.50Q402-47 471.50-150Q541-253 623-338L551-410Q458-319 379.50-212.50Q301-106 244 19Q187 144 155 288Q123 432 123 598Z"  horiz-adv-x="684" vert-adv-y="2048"  />

      
      <glyph glyph-name="uni29" unicode="&#x29;" d="M561 598Q561 432 529 288Q497 144 440 19Q383-106 304.50-212.50Q226-319 133-410L61-338Q144-253 213-150Q282-47 332 71.50Q382 190 410 322Q438 454 438 598Q438 742 410 874Q382 1006 332 1124.50Q282 1243 213 1346Q144 1449 61 1534L133 1606Q226 1515 304.50 1408.50Q383 1302 440 1177.50Q497 1053 529 909Q561 765 561 598Z"  horiz-adv-x="684" vert-adv-y="2048"  />

      
      <glyph glyph-name="uni2a" unicode="&#x2a;" d="M498 973L326 686L207 772L428 1022L102 1096L147 1233L455 1102L424 1434L569 1434L539 1102L846 1233L891 1096L565 1022L786 772L668 686L498 973Z"  horiz-adv-x="993" vert-adv-y="2048"  />

      
      <glyph glyph-name="uni2b" unicode="&#x2b;" d="M82 782L528 782L528 1229L657 1229L657 782L1106 782L1106 653L657 653L657 205L528 205L528 653L82 653L82 782Z"  horiz-adv-x="1188" vert-adv-y="2048"  />

      
      <glyph glyph-name="uni2c" unicode="&#x2c;" d="M195-287L143-287L143 154L297 154L195-287Z"  horiz-adv-x="440" vert-adv-y="2048"  />

      
      <glyph glyph-name="uni2d" unicode="&#x2d;" d="M102 627L102 743L485 743L485 627L102 627Z"  horiz-adv-x="588" vert-adv-y="2048"  />

      
      <glyph glyph-name="uni2e" unicode="&#x2e;" d="M143 0L143 154L297 154L297 0L143 0Z"  horiz-adv-x="440" vert-adv-y="2048"  />

      
      <glyph glyph-name="uni2f" unicode="&#x2f;" d="M41-123L612 1556L741 1556L170-123L41-123Z"  horiz-adv-x="782" vert-adv-y="2048"  />

      
      <glyph glyph-name="uni30" unicode="&#x30;" d="M909 332Q909 259 881.50 195Q854 131 806 83Q758 35 694 7.50Q630-20 557-20L496-20Q423-20 358.50 7.50Q294 35 246 83Q198 131 170.50 195Q143 259 143 332L143 1102Q143 1175 170.50 1239Q198 1303 246 1351Q294 1399 358.50 1426.50Q423 1454 496 1454L557 1454Q630 1454 694 1426.50Q758 1399 806 1351Q854 1303 881.50 1239Q909 1175 909 1102L909 332L909 332M780 1102Q780 1150 762 1191.50Q744 1233 713 1264Q682 1295 640.50 1313Q599 1331 551 1331L502 1331Q454 1331 412.50 1313Q371 1295 339.50 1264Q308 1233 290 1191.50Q272 1150 272 1102L272 332Q272 284 290 242.50Q308 201 339.50 169.50Q371 138 412.50 120Q454 102 502 102L551 102Q599 102 640.50 120Q682 138 713 169.50Q744 201 762 242.50Q780 284 780 332L780 1102Z"  horiz-adv-x="1053" vert-adv-y="2048"  />

      
      <glyph glyph-name="uni31" unicode="&#x31;" d="M164 0L164 123L506 123L506 1311L164 1167L164 1290L506 1434L635 1434L635 123L977 123L977 0L164 0Z"  horiz-adv-x="1059" vert-adv-y="2048"  />

      
      <glyph glyph-name="uni32" unicode="&#x32;" d="M471 1331Q423 1331 381.50 1313Q340 1295 309 1264Q278 1233 260 1191.50Q242 1150 242 1102L242 1044L113 1065L113 1102Q113 1175 140.50 1239Q168 1303 216 1351Q264 1399 328 1426.50Q392 1454 465 1454L526 1454Q599 1454 663.50 1428Q728 1402 776 1353Q824 1304 851.50 1235.50Q879 1167 879 1081Q879 996 853.50 910Q828 824 786.50 741Q745 658 691.50 580Q638 502 582 433Q451 272 285 123L889 123L889 0L82 0L82 102Q269 256 416 421Q479 492 539 572Q599 652 646 736.50Q693 821 721.50 908.50Q750 996 750 1081Q750 1144 731 1191Q712 1238 680 1269Q648 1300 606.50 1315.50Q565 1331 520 1331L471 1331Z"  horiz-adv-x="1012" vert-adv-y="2048"  />

      
      <glyph glyph-name="uni33" unicode="&#x33;" d="M909 332Q909 259 881.50 195Q854 131 806 83Q758 35 694 7.50Q630-20 557-20L496-20Q423-20 358.50 7.50Q294 35 246 83Q198 131 170.50 195Q143 259 143 332L143 369L272 389L272 332Q272 284 290 242.50Q308 201 339.50 169.50Q371 138 412.50 120Q454 102 502 102L551 102Q599 102 640.50 120Q682 138 713 169.50Q744 201 762 242.50Q780 284 780 332L780 451Q780 499 762 540.50Q744 582 713 613Q682 644 640.50 662Q599 680 551 680L455 680L455 803L551 803Q599 803 640.50 821Q682 839 713 870Q744 901 762 942.50Q780 984 780 1032L780 1102Q780 1150 762 1191.50Q744 1233 713 1264Q682 1295 640.50 1313Q599 1331 551 1331L502 1331Q454 1331 412.50 1313Q371 1295 339.50 1264Q308 1233 290 1191.50Q272 1150 272 1102L272 1044L143 1065L143 1102Q143 1175 170.50 1239Q198 1303 246 1351Q294 1399 358.50 1426.50Q423 1454 496 1454L557 1454Q630 1454 694 1426.50Q758 1399 806 1351Q854 1303 881.50 1239Q909 1175 909 1102L909 1053Q909 1002 895.50 955.50Q882 909 857.50 869Q833 829 799 796.50Q765 764 723 741Q765 719 799 686.50Q833 654 857.50 614Q882 574 895.50 527.50Q909 481 909 430L909 332L909 332Z"  horiz-adv-x="1053" vert-adv-y="2048"  />

      
      <glyph glyph-name="uni34" unicode="&#x34;" d="M766 248L766 0L637 0L637 248L61 248L61 309L698 1434L766 1434L766 371L889 371L889 248L766 248M637 1081L242 371L637 371L637 1081Z"  horiz-adv-x="1032" vert-adv-y="2048"  />

      
      <glyph glyph-name="uni35" unicode="&#x35;" d="M909 332Q909 259 881.50 195Q854 131 806 83Q758 35 694 7.50Q630-20 557-20L496-20Q423-20 358.50 7.50Q294 35 246 83Q198 131 170.50 195Q143 259 143 332L143 354L272 354L272 332Q272 284 290 242.50Q308 201 339.50 169.50Q371 138 412.50 120Q454 102 502 102L551 102Q599 102 640.50 120Q682 138 713 169.50Q744 201 762 242.50Q780 284 780 332L780 610Q780 658 762 699.50Q744 741 713 772.50Q682 804 640.50 822Q599 840 551 840L502 840Q454 840 412.50 822Q371 804 339.50 772.50Q308 741 290 699.50Q272 658 272 610L143 610L225 1434L838 1434L838 1311L346 1311L299 870Q345 914 406 938.50Q467 963 537 963L557 963Q630 963 694 935.50Q758 908 806 860Q854 812 881.50 747.50Q909 683 909 610L909 332L909 332Z"  horiz-adv-x="1053" vert-adv-y="2048"  />

      
      <glyph glyph-name="uni36" unicode="&#x36;" d="M930 332Q930 259 902.50 195Q875 131 827 83Q779 35 715 7.50Q651-20 578-20L516-20Q443-20 379 7.50Q315 35 267 83Q219 131 191.50 195Q164 259 164 332L164 1102Q164 1175 191.50 1239Q219 1303 267 1351Q315 1399 379 1426.50Q443 1454 516 1454L578 1454Q651 1454 715 1426.50Q779 1399 827 1351Q875 1303 902.50 1239Q930 1175 930 1102L930 1065L801 1044L801 1102Q801 1150 783 1191.50Q765 1233 733.50 1264Q702 1295 660.50 1313Q619 1331 571 1331L522 1331Q474 1331 432.50 1313Q391 1295 360 1264Q329 1233 311 1191.50Q293 1150 293 1102L293 745Q342 799 410.50 831.50Q479 864 557 864L578 864Q651 864 715 836.50Q779 809 827 761Q875 713 902.50 649Q930 585 930 512L930 332L930 332M801 512Q801 560 783 601.50Q765 643 733.50 674Q702 705 660.50 723Q619 741 571 741L522 741Q474 741 432.50 723Q391 705 360 674Q329 643 311 601.50Q293 560 293 512L293 332Q293 284 311 242.50Q329 201 360 169.50Q391 138 432.50 120Q474 102 522 102L571 102Q619 102 660.50 120Q702 138 733.50 169.50Q765 201 783 242.50Q801 284 801 332L801 512Z"  horiz-adv-x="1053" vert-adv-y="2048"  />

      
      <glyph glyph-name="uni37" unicode="&#x37;" d="M389 0L254 0L791 1311L293 1311L293 1120L164 1120L164 1434L950 1434L950 1372L389 0Z"  horiz-adv-x="1053" vert-adv-y="2048"  />

      
      <glyph glyph-name="uni38" unicode="&#x38;" d="M909 332Q909 259 881.50 195Q854 131 806 83Q758 35 694 7.50Q630-20 557-20L496-20Q423-20 358.50 7.50Q294 35 246 83Q198 131 170.50 195Q143 259 143 332L143 451Q143 542 185.50 617.50Q228 693 297 741Q228 789 185.50 865Q143 941 143 1032L143 1102Q143 1175 170.50 1239Q198 1303 246 1351Q294 1399 358.50 1426.50Q423 1454 496 1454L557 1454Q630 1454 694 1426.50Q758 1399 806 1351Q854 1303 881.50 1239Q909 1175 909 1102L909 1032Q909 941 867 865Q825 789 756 741Q825 693 867 617.50Q909 542 909 451L909 332L909 332M780 1102Q780 1150 762 1191.50Q744 1233 713 1264Q682 1295 640.50 1313Q599 1331 551 1331L502 1331Q454 1331 412.50 1313Q371 1295 339.50 1264Q308 1233 290 1191.50Q272 1150 272 1102L272 1032Q272 984 290 942.50Q308 901 339.50 870Q371 839 412.50 821Q454 803 502 803L551 803Q599 803 640.50 821Q682 839 713 870Q744 901 762 942.50Q780 984 780 1032L780 1102M780 451Q780 499 762 540.50Q744 582 713 613Q682 644 640.50 662Q599 680 551 680L502 680Q454 680 412.50 662Q371 644 339.50 613Q308 582 290 540.50Q272 499 272 451L272 332Q272 284 290 242.50Q308 201 339.50 169.50Q371 138 412.50 120Q454 102 502 102L551 102Q599 102 640.50 120Q682 138 713 169.50Q744 201 762 242.50Q780 284 780 332L780 451Z"  horiz-adv-x="1053" vert-adv-y="2048"  />

      
      <glyph glyph-name="uni39" unicode="&#x39;" d="M930 332Q930 259 902.50 195Q875 131 827 83Q779 35 715 7.50Q651-20 578-20L516-20Q443-20 379 7.50Q315 35 267 83Q219 131 191.50 195Q164 259 164 332L164 369L293 389L293 332Q293 284 311 242.50Q329 201 360 169.50Q391 138 432.50 120Q474 102 522 102L571 102Q619 102 660.50 120Q702 138 733.50 169.50Q765 201 783 242.50Q801 284 801 332L801 688Q751 634 683 601.50Q615 569 537 569L516 569Q443 569 379 596.50Q315 624 267 672Q219 720 191.50 784.50Q164 849 164 922L164 1102Q164 1175 191.50 1239Q219 1303 267 1351Q315 1399 379 1426.50Q443 1454 516 1454L578 1454Q651 1454 715 1426.50Q779 1399 827 1351Q875 1303 902.50 1239Q930 1175 930 1102L930 332L930 332M801 1102Q801 1150 783 1191.50Q765 1233 733.50 1264Q702 1295 660.50 1313Q619 1331 571 1331L522 1331Q474 1331 432.50 1313Q391 1295 360 1264Q329 1233 311 1191.50Q293 1150 293 1102L293 922Q293 874 311 832.50Q329 791 360 759.50Q391 728 432.50 710Q474 692 522 692L571 692Q619 692 660.50 710Q702 728 733.50 759.50Q765 791 783 832.50Q801 874 801 922L801 1102Z"  horiz-adv-x="1053" vert-adv-y="2048"  />

      
      <glyph glyph-name="uni3a" unicode="&#x3a;" d="M143 870L143 1024L297 1024L297 870L143 870M143 0L143 154L297 154L297 0L143 0Z"  horiz-adv-x="440" vert-adv-y="2048"  />

      
      <glyph glyph-name="uni3b" unicode="&#x3b;" d="M143 870L143 1024L297 1024L297 870L143 870M195-287L143-287L143 154L297 154L195-287Z"  horiz-adv-x="440" vert-adv-y="2048"  />

      
      <glyph glyph-name="uni3c" unicode="&#x3c;" d="M1126 1247L1126 1106L248 717L1126 330L1126 188L102 645L102 791L1126 1247Z"  horiz-adv-x="1249" vert-adv-y="2048"  />

      
      <glyph glyph-name="uni3d" unicode="&#x3d;" d="M1188 973L1188 844L164 844L164 973L1188 973M1188 592L1188 463L164 463L164 592L1188 592Z"  horiz-adv-x="1352" vert-adv-y="2048"  />

      
      <glyph glyph-name="uni3e" unicode="&#x3e;" d="M999 717L123 1106L123 1247L1147 791L1147 645L123 188L123 330L999 717Z"  horiz-adv-x="1249" vert-adv-y="2048"  />

      
      <glyph glyph-name="uni3f" unicode="&#x3f;" d="M332 0L332 154L485 154L485 0L332 0M473 434L344 434L344 473Q344 539 360 588Q376 637 402.50 674Q429 711 462.50 740Q496 769 531.50 795.50Q567 822 600.50 849Q634 876 660.50 909Q687 942 703 984Q719 1026 719 1083L719 1102Q719 1150 701 1191.50Q683 1233 651.50 1264Q620 1295 578.50 1313Q537 1331 489 1331L461 1331Q413 1331 371.50 1313Q330 1295 298.50 1264Q267 1233 249 1191.50Q231 1150 231 1102L231 1044L102 1065L102 1102Q102 1175 129.50 1239Q157 1303 205 1351Q253 1399 317.50 1426.50Q382 1454 455 1454L496 1454Q569 1454 633 1426.50Q697 1399 745 1351Q793 1303 820.50 1239Q848 1175 848 1102L848 1083Q848 1014 832 962Q816 910 789.50 870Q763 830 729.50 799Q696 768 660.50 741Q625 714 591.50 688Q558 662 531.50 631Q505 600 489 562Q473 524 473 473L473 434Z"  horiz-adv-x="950" vert-adv-y="2048"  />

      
      <glyph glyph-name="uni40" unicode="&#x40;" d="M1305 254Q1291 154 1330.50 106.50Q1370 59 1454 59Q1515 59 1573 103Q1631 147 1676 225.50Q1721 304 1748.50 412.50Q1776 521 1776 649Q1776 796 1732.50 922Q1689 1048 1606.50 1139.50Q1524 1231 1403.50 1283Q1283 1335 1128 1335Q1005 1335 894 1300Q783 1265 687.50 1202Q592 1139 515 1051.50Q438 964 383.50 858Q329 752 299.50 632Q270 512 270 383Q270 236 310 109Q350-18 429-111.50Q508-205 624.50-258Q741-311 895-311Q951-311 1004.50-303.50Q1058-296 1106-284Q1154-272 1194.50-256Q1235-240 1264-223L1305-317Q1257-346 1203-367.50Q1149-389 1093.50-403Q1038-417 983.50-423.50Q929-430 879-430Q702-430 565-369Q428-308 334.50-201Q241-94 192 51.50Q143 197 143 367Q143 513 178 650.50Q213 788 277.50 909Q342 1030 433 1130Q524 1230 635 1302Q746 1374 875 1414Q1004 1454 1145 1454Q1322 1454 1462.50 1394Q1603 1334 1701 1228.50Q1799 1123 1851 979Q1903 835 1903 666Q1903 585 1890 500.50Q1877 416 1851 336Q1825 256 1786 186Q1747 116 1694.50 63Q1642 10 1576-20.50Q1510-51 1430-51Q1375-51 1334-39Q1293-27 1262.50-6.50Q1232 14 1210.50 42.50Q1189 71 1174 104Q1123 47 1055 13.50Q987-20 911-20L881-20Q824-20 776.50 0Q729 20 694.50 54.50Q660 89 640.50 136Q621 183 621 238Q621 249 621 259.50Q621 270 623 281L686 743Q695 805 726.50 860Q758 915 805 956Q852 997 910.50 1020.50Q969 1044 1030 1044L1061 1044Q1136 1044 1195 1010.50Q1254 977 1286 920L1370 1024L1411 1024L1305 254M743 274Q743 268 742 262Q741 256 741 250Q741 217 752.50 189Q764 161 785 140Q806 119 834.50 107.50Q863 96 897 96L979 96Q1016 96 1050 110Q1084 124 1111.50 148Q1139 172 1157.50 204.50Q1176 237 1182 274L1249 750Q1251 756 1251 763Q1251 770 1251 776Q1251 808 1239.50 836Q1228 864 1207.50 884.50Q1187 905 1158.50 916.50Q1130 928 1096 928L1014 928Q977 928 942.50 914Q908 900 880.50 876Q853 852 834.50 819.50Q816 787 811 750L743 274Z"  horiz-adv-x="2046" vert-adv-y="2048"  />

      
      <glyph glyph-name="uni41" unicode="&#x41;" d="M702 334L248 334L154 0L20 0L440 1434L508 1434L930 0L797 0L702 334M283 457L668 457L479 1118L475 1171L471 1118L283 457Z"  horiz-adv-x="950" vert-adv-y="2048"  />

      
      <glyph glyph-name="uni42" unicode="&#x42;" d="M971 352Q971 279 943.50 215Q916 151 868 103Q820 55 755.50 27.50Q691 0 618 0L164 0L164 1434L618 1434Q691 1434 755.50 1406.50Q820 1379 868 1331Q916 1283 943.50 1218.50Q971 1154 971 1081L971 1067Q971 1016 957.50 969.50Q944 923 919 883Q894 843 860 810.50Q826 778 784 756Q826 734 860 701.50Q894 669 919 628.50Q944 588 957.50 541.50Q971 495 971 444L971 352L971 352M842 465Q842 513 824 554.50Q806 596 774.50 627Q743 658 701.50 676Q660 694 612 694L293 694L293 123L612 123Q660 123 701.50 141Q743 159 774.50 190Q806 221 824 262.50Q842 304 842 352L842 465M842 1081Q842 1129 824 1170.50Q806 1212 774.50 1243.50Q743 1275 701.50 1293Q660 1311 612 1311L293 1311L293 817L612 817Q660 817 701.50 835Q743 853 774.50 884.50Q806 916 824 957.50Q842 999 842 1047L842 1081Z"  horiz-adv-x="1053" vert-adv-y="2048"  />

      
      <glyph glyph-name="uni43" unicode="&#x43;" d="M950 332Q950 259 922.50 195Q895 131 847 83Q799 35 735 7.50Q671-20 598-20L496-20Q423-20 358.50 7.50Q294 35 246 83Q198 131 170.50 195Q143 259 143 332L143 1102Q143 1175 170.50 1239Q198 1303 246 1351Q294 1399 358.50 1426.50Q423 1454 496 1454L598 1454Q671 1454 735 1426.50Q799 1399 847 1351Q895 1303 922.50 1239Q950 1175 950 1102L950 1044L821 1024L821 1102Q821 1150 803 1191.50Q785 1233 754 1264Q723 1295 681.50 1313Q640 1331 592 1331L502 1331Q454 1331 412.50 1313Q371 1295 339.50 1264Q308 1233 290 1191.50Q272 1150 272 1102L272 332Q272 284 290 242.50Q308 201 339.50 169.50Q371 138 412.50 120Q454 102 502 102L592 102Q640 102 681.50 120Q723 138 754 169.50Q785 201 803 242.50Q821 284 821 332L821 410L950 389L950 332L950 332Z"  horiz-adv-x="1073" vert-adv-y="2048"  />

      
      <glyph glyph-name="uni44" unicode="&#x44;" d="M971 352Q971 279 943.50 215Q916 151 868 103Q820 55 755.50 27.50Q691 0 618 0L164 0L164 1434L618 1434Q691 1434 755.50 1406.50Q820 1379 868 1331Q916 1283 943.50 1218.50Q971 1154 971 1081L971 352L971 352M842 1081Q842 1129 824 1170.50Q806 1212 774.50 1243.50Q743 1275 701.50 1293Q660 1311 612 1311L293 1311L293 123L612 123Q660 123 701.50 141Q743 159 774.50 190Q806 221 824 262.50Q842 304 842 352L842 1081Z"  horiz-adv-x="1114" vert-adv-y="2048"  />

      
      <glyph glyph-name="uni45" unicode="&#x45;" d="M164 0L164 1434L971 1434L971 1311L293 1311L293 778L842 778L842 655L293 655L293 123L971 123L971 0L164 0Z"  horiz-adv-x="1053" vert-adv-y="2048"  />

      
      <glyph glyph-name="uni46" unicode="&#x46;" d="M293 1311L293 778L842 778L842 655L293 655L293 0L164 0L164 1434L971 1434L971 1311L293 1311Z"  horiz-adv-x="1012" vert-adv-y="2048"  />

      
      <glyph glyph-name="uni47" unicode="&#x47;" d="M950 0L909 0L834 115Q787 53 720 16.50Q653-20 571-20L496-20Q423-20 358.50 7.50Q294 35 246 83Q198 131 170.50 195Q143 259 143 332L143 1102Q143 1175 170.50 1239Q198 1303 246 1351Q294 1399 358.50 1426.50Q423 1454 496 1454L598 1454Q671 1454 735 1426.50Q799 1399 847 1351Q895 1303 922.50 1239Q950 1175 950 1102L950 1044L821 1024L821 1102Q821 1150 803 1191.50Q785 1233 754 1264Q723 1295 681.50 1313Q640 1331 592 1331L502 1331Q454 1331 412.50 1313Q371 1295 339.50 1264Q308 1233 290 1191.50Q272 1150 272 1102L272 332Q272 284 290 242.50Q308 201 339.50 169.50Q371 138 412.50 120Q454 102 502 102L592 102Q640 102 681.50 120Q723 138 754 169.50Q785 201 803 242.50Q821 284 821 332L821 631L592 631L592 754L950 754L950 0Z"  horiz-adv-x="1094" vert-adv-y="2048"  />

      
      <glyph glyph-name="uni48" unicode="&#x48;" d="M842 0L842 655L293 655L293 0L164 0L164 1434L293 1434L293 778L842 778L842 1434L971 1434L971 0L842 0Z"  horiz-adv-x="1135" vert-adv-y="2048"  />

      
      <glyph glyph-name="uni49" unicode="&#x49;" d="M164 0L164 1434L293 1434L293 0L164 0Z"  horiz-adv-x="457" vert-adv-y="2048"  />

      
      <glyph glyph-name="uni4a" unicode="&#x4a;" d="M807 332Q807 259 779.50 195Q752 131 704 83Q656 35 592 7.50Q528-20 455-20L414-20Q341-20 276.50 7.50Q212 35 164 83Q116 131 88.50 195Q61 259 61 332L61 389L190 410L190 332Q190 284 208 242.50Q226 201 257.50 169.50Q289 138 330.50 120Q372 102 420 102L449 102Q496 102 538 120Q580 138 611 169.50Q642 201 660 242.50Q678 284 678 332L678 1434L807 1434L807 332L807 332Z"  horiz-adv-x="930" vert-adv-y="2048"  />

      
      <glyph glyph-name="uni4b" unicode="&#x4b;" d="M864 0L324 717L864 1434L1024 1434L473 717L1024 0L864 0M164 0L164 1434L293 1434L293 0L164 0Z"  horiz-adv-x="1065" vert-adv-y="2048"  />

      
      <glyph glyph-name="uni4c" unicode="&#x4c;" d="M143 0L143 1434L272 1434L272 123L821 123L821 0L143 0Z"  horiz-adv-x="862" vert-adv-y="2048"  />

      
      <glyph glyph-name="uni4d" unicode="&#x4d;" d="M1047 0L1047 983L1038 922L705 0L637 0L301 922L293 983L293 0L164 0L164 1434L231 1434L666 258L670 205L674 258L1108 1434L1176 1434L1176 0L1047 0Z"  horiz-adv-x="1339" vert-adv-y="2048"  />

      
      <glyph glyph-name="uni4e" unicode="&#x4e;" d="M903 0L305 1044L293 1106L293 0L164 0L164 1434L231 1434L829 389L842 328L842 1434L971 1434L971 0L903 0Z"  horiz-adv-x="1135" vert-adv-y="2048"  />

      
      <glyph glyph-name="uni4f" unicode="&#x4f;" d="M950 332Q950 259 922.50 195Q895 131 847 83Q799 35 735 7.50Q671-20 598-20L496-20Q423-20 358.50 7.50Q294 35 246 83Q198 131 170.50 195Q143 259 143 332L143 1102Q143 1175 170.50 1239Q198 1303 246 1351Q294 1399 358.50 1426.50Q423 1454 496 1454L598 1454Q671 1454 735 1426.50Q799 1399 847 1351Q895 1303 922.50 1239Q950 1175 950 1102L950 332L950 332M821 1102Q821 1150 803 1191.50Q785 1233 754 1264Q723 1295 681.50 1313Q640 1331 592 1331L502 1331Q454 1331 412.50 1313Q371 1295 339.50 1264Q308 1233 290 1191.50Q272 1150 272 1102L272 332Q272 284 290 242.50Q308 201 339.50 169.50Q371 138 412.50 120Q454 102 502 102L592 102Q640 102 681.50 120Q723 138 754 169.50Q785 201 803 242.50Q821 284 821 332L821 1102Z"  horiz-adv-x="1094" vert-adv-y="2048"  />

      
      <glyph glyph-name="uni50" unicode="&#x50;" d="M971 903Q971 830 943.50 766Q916 702 868 654Q820 606 755.50 578.50Q691 551 618 551L293 551L293 0L164 0L164 1434L618 1434Q691 1434 755.50 1406.50Q820 1379 868 1331Q916 1283 943.50 1218.50Q971 1154 971 1081L971 903L971 903M842 1081Q842 1129 824 1170.50Q806 1212 774.50 1243.50Q743 1275 701.50 1293Q660 1311 612 1311L293 1311L293 674L612 674Q660 674 701.50 692Q743 710 774.50 741Q806 772 824 813.50Q842 855 842 903L842 1081Z"  horiz-adv-x="1053" vert-adv-y="2048"  />

      
      <glyph glyph-name="uni51" unicode="&#x51;" d="M950 332Q950 262 925 200Q900 138 856 91Q812 44 752.50 14.50Q693-15 625-20L756-315L627-315L496-20Q423-20 358.50 7.50Q294 35 246 83Q198 131 170.50 195Q143 259 143 332L143 1102Q143 1175 170.50 1239Q198 1303 246 1351Q294 1399 358.50 1426.50Q423 1454 496 1454L598 1454Q671 1454 735 1426.50Q799 1399 847 1351Q895 1303 922.50 1239Q950 1175 950 1102L950 332L950 332M821 1102Q821 1150 803 1191.50Q785 1233 754 1264Q723 1295 681.50 1313Q640 1331 592 1331L502 1331Q454 1331 412.50 1313Q371 1295 339.50 1264Q308 1233 290 1191.50Q272 1150 272 1102L272 332Q272 284 290 242.50Q308 201 339.50 169.50Q371 138 412.50 120Q454 102 502 102L592 102Q640 102 681.50 120Q723 138 754 169.50Q785 201 803 242.50Q821 284 821 332L821 1102Z"  horiz-adv-x="1094" vert-adv-y="2048"  />

      
      <glyph glyph-name="uni52" unicode="&#x52;" d="M838 0L449 612L272 612L272 0L143 0L143 1434L598 1434Q671 1434 735 1406.50Q799 1379 847 1331Q895 1283 922.50 1218.50Q950 1154 950 1081L950 965Q950 892 922.50 827.50Q895 763 847 715Q799 667 735 639.50Q671 612 598 612L987 0L838 0M821 1081Q821 1129 803 1170.50Q785 1212 754 1243.50Q723 1275 681.50 1293Q640 1311 592 1311L272 1311L272 735L592 735Q640 735 681.50 753Q723 771 754 802.50Q785 834 803 875.50Q821 917 821 965L821 1081Z"  horiz-adv-x="1069" vert-adv-y="2048"  />

      
      <glyph glyph-name="uni53" unicode="&#x53;" d="M950 332Q950 259 920.50 195Q891 131 841.50 83Q792 35 726.50 7.50Q661-20 588-20L485-20Q412-20 346.50 7.50Q281 35 231.50 83Q182 131 152.50 195Q123 259 123 332L123 389L252 410L252 332Q252 284 271.50 242.50Q291 201 324 169.50Q357 138 400.50 120Q444 102 492 102L582 102Q630 102 673 120Q716 138 749 169.50Q782 201 801.50 242.50Q821 284 821 332L821 375Q821 449 792 498Q763 547 715 581.50Q667 616 606.50 640Q546 664 482 688Q418 712 357.50 741Q297 770 249 813.50Q201 857 172 920Q143 983 143 1075L143 1102Q143 1175 170.50 1239Q198 1303 246 1351Q294 1399 358.50 1426.50Q423 1454 496 1454L588 1454Q661 1454 725 1426.50Q789 1399 837 1351Q885 1303 912.50 1239Q940 1175 940 1102L940 1065L811 1044L811 1102Q811 1150 793 1191.50Q775 1233 744 1264Q713 1295 671.50 1313Q630 1331 582 1331L502 1331Q454 1331 412.50 1313Q371 1295 339.50 1264Q308 1233 290 1191.50Q272 1150 272 1102L272 1075Q272 1006 301 959Q330 912 378 878.50Q426 845 486.50 820.50Q547 796 611 770.50Q675 745 735.50 714.50Q796 684 844 639.50Q892 595 921 531Q950 467 950 375L950 332Z"  horiz-adv-x="1063" vert-adv-y="2048"  />

      
      <glyph glyph-name="uni54" unicode="&#x54;" d="M512 1311L512 0L383 0L383 1311L41 1311L41 1434L854 1434L854 1311L512 1311Z"  horiz-adv-x="895" vert-adv-y="2048"  />

      
      <glyph glyph-name="uni55" unicode="&#x55;" d="M950 332Q950 259 922.50 195Q895 131 847 83Q799 35 735 7.50Q671-20 598-20L496-20Q423-20 358.50 7.50Q294 35 246 83Q198 131 170.50 195Q143 259 143 332L143 1434L272 1434L272 332Q272 284 290 242.50Q308 201 339.50 169.50Q371 138 412.50 120Q454 102 502 102L592 102Q640 102 681.50 120Q723 138 754 169.50Q785 201 803 242.50Q821 284 821 332L821 1434L950 1434L950 332L950 332Z"  horiz-adv-x="1094" vert-adv-y="2048"  />

      
      <glyph glyph-name="uni56" unicode="&#x56;" d="M471 315L475 262L479 315L797 1434L930 1434L508 0L440 0L20 1434L154 1434L471 315Z"  horiz-adv-x="950" vert-adv-y="2048"  />

      
      <glyph glyph-name="uni57" unicode="&#x57;" d="M1122 0L1055 0L776 1079L772 1135L766 1079L489 0L422 0L41 1434L170 1434L451 344L455 291L459 344L735 1434L807 1434L1083 344L1087 291L1092 344L1372 1434L1501 1434L1122 0Z"  horiz-adv-x="1542" vert-adv-y="2048"  />

      
      <glyph glyph-name="uni58" unicode="&#x58;" d="M791 0L496 596L201 0L61 0L426 737L82 1434L221 1434L496 879L770 1434L909 1434L565 737L930 0L791 0Z"  horiz-adv-x="991" vert-adv-y="2048"  />

      
      <glyph glyph-name="uni59" unicode="&#x59;" d="M541 686L541 0L412 0L412 684L41 1434L180 1434L475 838L770 1434L909 1434L541 686Z"  horiz-adv-x="950" vert-adv-y="2048"  />

      
      <glyph glyph-name="uni5a" unicode="&#x5a;" d="M82 0L82 61L721 1311L102 1311L102 1434L889 1434L889 1372L250 123L889 123L889 0L82 0Z"  horiz-adv-x="971" vert-adv-y="2048"  />

      
      <glyph glyph-name="uni5b" unicode="&#x5b;" d="M530-410L164-410L164 1606L530 1606L530 1495L287 1495L287-299L530-299L530-410Z"  horiz-adv-x="633" vert-adv-y="2048"  />

      
      <glyph glyph-name="uni5c" unicode="&#x5c;" d="M612-123L41 1556L170 1556L741-123L612-123Z"  horiz-adv-x="782" vert-adv-y="2048"  />

      
      <glyph glyph-name="uni5d" unicode="&#x5d;" d="M102-299L346-299L346 1495L102 1495L102 1606L469 1606L469-410L102-410L102-299Z"  horiz-adv-x="633" vert-adv-y="2048"  />

      
      <glyph glyph-name="uni5e" unicode="&#x5e;" d="M981 776L844 776L551 1315L260 776L123 776L483 1434L621 1434L981 776Z"  horiz-adv-x="1104" vert-adv-y="2048"  />

      
      <glyph glyph-name="uni5f" unicode="&#x5f;" d="M1124-293L1124-410L-2-410L-2-293L1124-293Z"  horiz-adv-x="1122" vert-adv-y="2048"  />

      
      <glyph glyph-name="uni60" unicode="&#x60;" d="M205 1434L410 1434L573 1188L481 1188L205 1434Z"  horiz-adv-x="778" vert-adv-y="2048"  />

      
      <glyph glyph-name="uni61" unicode="&#x61;" d="M766 0L698 102Q656 47 593 13.50Q530-20 455-20L424-20Q362-20 307 3.50Q252 27 211 68Q170 109 146.50 164Q123 219 123 281L123 291Q123 353 146.50 408Q170 463 211 504Q252 545 307 568.50Q362 592 424 592L684 592L684 750Q684 787 670 819.50Q656 852 632 876Q608 900 575.50 914Q543 928 506 928L434 928Q397 928 364.50 914Q332 900 308 876Q284 852 270 819.50Q256 787 256 750L256 713L133 733L133 743Q133 805 156.50 860Q180 915 221 956Q262 997 317 1020.50Q372 1044 434 1044L506 1044Q568 1044 623 1020.50Q678 997 719 956Q760 915 783.50 860Q807 805 807 743L807 0L766 0M684 496L424 496Q387 496 354.50 482Q322 468 298 443.50Q274 419 260 386.50Q246 354 246 317L246 274Q246 237 260 204.50Q274 172 298 148Q322 124 354.50 110Q387 96 424 96L506 96Q543 96 575.50 110Q608 124 632 148Q656 172 670 204.50Q684 237 684 274L684 496Z"  horiz-adv-x="930" vert-adv-y="2048"  />

      
      <glyph glyph-name="uni62" unicode="&#x62;" d="M807 281Q807 219 783.50 164Q760 109 719 68Q678 27 623 3.50Q568-20 506-20L424-20Q362-20 307 3.50Q252 27 211 68Q170 109 146.50 164Q123 219 123 281L123 1434L246 1434L246 938Q288 988 347 1016Q406 1044 475 1044L506 1044Q568 1044 623 1020.50Q678 997 719 956Q760 915 783.50 860Q807 805 807 743L807 281L807 281M684 750Q684 787 670 819.50Q656 852 632 876Q608 900 575.50 914Q543 928 506 928L424 928Q387 928 354.50 914Q322 900 298 876Q274 852 260 819.50Q246 787 246 750L246 274Q246 237 260 204.50Q274 172 298 148Q322 124 354.50 110Q387 96 424 96L506 96Q543 96 575.50 110Q608 124 632 148Q656 172 670 204.50Q684 237 684 274L684 750Z"  horiz-adv-x="930" vert-adv-y="2048"  />

      
      <glyph glyph-name="uni63" unicode="&#x63;" d="M807 281Q807 219 783.50 164Q760 109 719 68Q678 27 623 3.50Q568-20 506-20L424-20Q362-20 307 3.50Q252 27 211 68Q170 109 146.50 164Q123 219 123 281L123 743Q123 805 146.50 860Q170 915 211 956Q252 997 307 1020.50Q362 1044 424 1044L506 1044Q568 1044 623 1020.50Q678 997 719 956Q760 915 783.50 860Q807 805 807 743L807 702L684 682L684 750Q684 787 670 819.50Q656 852 632 876Q608 900 575.50 914Q543 928 506 928L424 928Q387 928 354.50 914Q322 900 298 876Q274 852 260 819.50Q246 787 246 750L246 274Q246 237 260 204.50Q274 172 298 148Q322 124 354.50 110Q387 96 424 96L506 96Q543 96 575.50 110Q608 124 632 148Q656 172 670 204.50Q684 237 684 274L684 342L807 322L807 281L807 281Z"  horiz-adv-x="930" vert-adv-y="2048"  />

      
      <glyph glyph-name="uni64" unicode="&#x64;" d="M766 0L698 104Q656 47 593 13.50Q530-20 455-20L424-20Q362-20 307 3.50Q252 27 211 68Q170 109 146.50 164Q123 219 123 281L123 743Q123 805 146.50 860Q170 915 211 956Q252 997 307 1020.50Q362 1044 424 1044L455 1044Q524 1044 583 1016Q642 988 684 938L684 1434L807 1434L807 0L766 0M684 750Q684 787 670 819.50Q656 852 632 876Q608 900 575.50 914Q543 928 506 928L424 928Q387 928 354.50 914Q322 900 298 876Q274 852 260 819.50Q246 787 246 750L246 274Q246 237 260 204.50Q274 172 298 148Q322 124 354.50 110Q387 96 424 96L506 96Q543 96 575.50 110Q608 124 632 148Q656 172 670 204.50Q684 237 684 274L684 750Z"  horiz-adv-x="930" vert-adv-y="2048"  />

      
      <glyph glyph-name="uni65" unicode="&#x65;" d="M807 281Q807 219 783.50 164Q760 109 719 68Q678 27 623 3.50Q568-20 506-20L424-20Q362-20 307 3.50Q252 27 211 68Q170 109 146.50 164Q123 219 123 281L123 743Q123 805 146.50 860Q170 915 211 956Q252 997 307 1020.50Q362 1044 424 1044L506 1044Q568 1044 623 1020.50Q678 997 719 956Q760 915 783.50 860Q807 805 807 743L807 502L246 502L246 274Q246 237 260 204.50Q274 172 298 148Q322 124 354.50 110Q387 96 424 96L506 96Q543 96 575.50 110Q608 124 632 148Q656 172 670 204.50Q684 237 684 274L684 342L807 322L807 281L807 281M684 750Q684 787 670 819.50Q656 852 632 876Q608 900 575.50 914Q543 928 506 928L424 928Q387 928 354.50 914Q322 900 298 876Q274 852 260 819.50Q246 787 246 750L246 598L684 598L684 750Z"  horiz-adv-x="930" vert-adv-y="2048"  />

      
      <glyph glyph-name="uni66" unicode="&#x66;" d="M475 1317Q444 1317 417.50 1305.50Q391 1294 371 1274Q351 1254 339.50 1227Q328 1200 328 1169L328 1024L567 1024L567 907L328 907L328 0L205 0L205 907L20 907L20 1024L205 1024L205 1163Q205 1219 226 1268.50Q247 1318 284 1355Q321 1392 370 1413Q419 1434 475 1434L588 1434L588 1317L475 1317Z"  horiz-adv-x="588" vert-adv-y="2048"  />

      
      <glyph glyph-name="uni67" unicode="&#x67;" d="M817-129Q817-191 793.50-243Q770-295 729-332Q688-369 633-389.50Q578-410 516-410L465-410Q403-410 348-389.50Q293-369 252-332Q211-295 187.50-243Q164-191 164-129L164-125Q164-65 186-15Q208 35 246 72Q198 101 169.50 150.50Q141 200 141 260Q141 314 164 360.50Q187 407 227 436Q179 478 151 537Q123 596 123 666L123 743Q123 805 146.50 860Q170 915 211 956Q252 997 307 1020.50Q362 1044 424 1044L475 1044Q550 1044 613.50 1010.50Q677 977 719 920L786 1024L827 1024L827 666Q827 604 803.50 549Q780 494 739 453Q698 412 643 388.50Q588 365 526 365L348 365Q327 365 308 356.50Q289 348 274.50 334Q260 320 252 300.50Q244 281 244 260Q244 239 252 220Q260 201 274.50 186.50Q289 172 308 164Q327 156 348 156L516 156Q578 156 633 135.50Q688 115 729 78Q770 41 793.50-11Q817-63 817-125L817-129L817-129M705 750Q705 787 691 819.50Q677 852 652.50 876Q628 900 595.50 914Q563 928 526 928L424 928Q387 928 354.50 914Q322 900 298 876Q274 852 260 819.50Q246 787 246 750L246 659Q246 622 260 589.50Q274 557 298 533Q322 509 354.50 495Q387 481 424 481L526 481Q563 481 595.50 495Q628 509 652.50 533Q677 557 691 589.50Q705 622 705 659L705 750M700-119Q700-82 686-52.50Q672-23 648-3Q624 17 591.50 28Q559 39 522 39L459 39Q422 39 389.50 28Q357 17 333-3Q309-23 295-52.50Q281-82 281-119L281-135Q281-172 295-201Q309-230 333-250.50Q357-271 389.50-282Q422-293 459-293L522-293Q559-293 591.50-282Q624-271 648-250.50Q672-230 686-201Q700-172 700-135L700-119Z"  horiz-adv-x="930" vert-adv-y="2048"  />

      
      <glyph glyph-name="uni68" unicode="&#x68;" d="M684 0L684 750Q684 787 670 819.50Q656 852 632 876Q608 900 575.50 914Q543 928 506 928L424 928Q387 928 354.50 914Q322 900 298 876Q274 852 260 819.50Q246 787 246 750L246 0L123 0L123 1434L246 1434L246 938Q288 988 347 1016Q406 1044 475 1044L506 1044Q568 1044 623 1020.50Q678 997 719 956Q760 915 783.50 860Q807 805 807 743L807 0L684 0Z"  horiz-adv-x="930" vert-adv-y="2048"  />

      
      <glyph glyph-name="uni69" unicode="&#x69;" d="M154 1270L154 1434L297 1434L297 1270L154 1270M164 0L164 1024L287 1024L287 0L164 0Z"  horiz-adv-x="451" vert-adv-y="2048"  />

      
      <glyph glyph-name="uni6a" unicode="&#x6a;" d="M154 1270L154 1434L297 1434L297 1270L154 1270M287-109Q287-171 263.50-225.50Q240-280 199-321Q158-362 103-386Q48-410-14-410L-14-293Q23-293 55.50-279Q88-265 112-241Q136-217 150-184.50Q164-152 164-115L164 1024L287 1024L287-109L287-109Z"  horiz-adv-x="451" vert-adv-y="2048"  />

      
      <glyph glyph-name="uni6b" unicode="&#x6b;" d="M729 0L311 512L729 1024L889 1024L461 512L889 0L729 0M164 0L164 1434L287 1434L287 0L164 0Z"  horiz-adv-x="930" vert-adv-y="2048"  />

      
      <glyph glyph-name="uni6c" unicode="&#x6c;" d="M164 0L164 1434L287 1434L287 0L164 0Z"  horiz-adv-x="451" vert-adv-y="2048"  />

      
      <glyph glyph-name="uni6d" unicode="&#x6d;" d="M1204 0L1204 750Q1204 787 1190 819.50Q1176 852 1152 876Q1128 900 1095.50 914Q1063 928 1026 928L965 928Q928 928 895.50 914Q863 900 838.50 876Q814 852 800 819.50Q786 787 786 750L786 0L664 0L664 750Q664 787 650 819.50Q636 852 611.50 876Q587 900 554.50 914Q522 928 485 928L424 928Q387 928 354.50 914Q322 900 298 876Q274 852 260 819.50Q246 787 246 750L246 0L123 0L123 1024L164 1024L231 920Q273 977 336.50 1010.50Q400 1044 475 1044L485 1044Q572 1044 642 1001Q712 958 750 887Q769 922 797 951Q825 980 859 1000.50Q893 1021 933 1032.50Q973 1044 1016 1044L1026 1044Q1088 1044 1143 1020.50Q1198 997 1239 956Q1280 915 1303.50 860Q1327 805 1327 743L1327 0L1204 0Z"  horiz-adv-x="1450" vert-adv-y="2048"  />

      
      <glyph glyph-name="uni6e" unicode="&#x6e;" d="M684 0L684 750Q684 787 670 819.50Q656 852 632 876Q608 900 575.50 914Q543 928 506 928L424 928Q387 928 354.50 914Q322 900 298 876Q274 852 260 819.50Q246 787 246 750L246 0L123 0L123 1024L164 1024L231 920Q273 977 336.50 1010.50Q400 1044 475 1044L506 1044Q568 1044 623 1020.50Q678 997 719 956Q760 915 783.50 860Q807 805 807 743L807 0L684 0Z"  horiz-adv-x="930" vert-adv-y="2048"  />

      
      <glyph glyph-name="uni6f" unicode="&#x6f;" d="M807 281Q807 219 783.50 164Q760 109 719 68Q678 27 623 3.50Q568-20 506-20L424-20Q362-20 307 3.50Q252 27 211 68Q170 109 146.50 164Q123 219 123 281L123 743Q123 805 146.50 860Q170 915 211 956Q252 997 307 1020.50Q362 1044 424 1044L506 1044Q568 1044 623 1020.50Q678 997 719 956Q760 915 783.50 860Q807 805 807 743L807 281L807 281M684 750Q684 787 670 819.50Q656 852 632 876Q608 900 575.50 914Q543 928 506 928L424 928Q387 928 354.50 914Q322 900 298 876Q274 852 260 819.50Q246 787 246 750L246 274Q246 237 260 204.50Q274 172 298 148Q322 124 354.50 110Q387 96 424 96L506 96Q543 96 575.50 110Q608 124 632 148Q656 172 670 204.50Q684 237 684 274L684 750Z"  horiz-adv-x="930" vert-adv-y="2048"  />

      
      <glyph glyph-name="uni70" unicode="&#x70;" d="M807 281Q807 219 783.50 164Q760 109 719 68Q678 27 623 3.50Q568-20 506-20L475-20Q406-20 347 8Q288 36 246 86L246-410L123-410L123 1024L164 1024L231 920Q273 977 336.50 1010.50Q400 1044 475 1044L506 1044Q568 1044 623 1020.50Q678 997 719 956Q760 915 783.50 860Q807 805 807 743L807 281L807 281M684 750Q684 787 670 819.50Q656 852 632 876Q608 900 575.50 914Q543 928 506 928L424 928Q387 928 354.50 914Q322 900 298 876Q274 852 260 819.50Q246 787 246 750L246 274Q246 237 260 204.50Q274 172 298 148Q322 124 354.50 110Q387 96 424 96L506 96Q543 96 575.50 110Q608 124 632 148Q656 172 670 204.50Q684 237 684 274L684 750Z"  horiz-adv-x="930" vert-adv-y="2048"  />

      
      <glyph glyph-name="uni71" unicode="&#x71;" d="M684-410L684 86Q642 36 583 8Q524-20 455-20L424-20Q362-20 307 3.50Q252 27 211 68Q170 109 146.50 164Q123 219 123 281L123 743Q123 805 146.50 860Q170 915 211 956Q252 997 307 1020.50Q362 1044 424 1044L455 1044Q530 1044 593 1010.50Q656 977 698 920L766 1024L807 1024L807-410L684-410M684 750Q684 787 670 819.50Q656 852 632 876Q608 900 575.50 914Q543 928 506 928L424 928Q387 928 354.50 914Q322 900 298 876Q274 852 260 819.50Q246 787 246 750L246 274Q246 237 260 204.50Q274 172 298 148Q322 124 354.50 110Q387 96 424 96L506 96Q543 96 575.50 110Q608 124 632 148Q656 172 670 204.50Q684 237 684 274L684 750Z"  horiz-adv-x="930" vert-adv-y="2048"  />

      
      <glyph glyph-name="uni72" unicode="&#x72;" d="M424 907Q387 907 354.50 893Q322 879 298 855Q274 831 260 798.50Q246 766 246 729L246 0L123 0L123 1024L164 1024L231 920Q273 977 336.50 1010.50Q400 1044 475 1044L547 1044L547 907L424 907Z"  horiz-adv-x="588" vert-adv-y="2048"  />

      
      <glyph glyph-name="uni73" unicode="&#x73;" d="M827 260Q827 198 802 146.50Q777 95 734 58Q691 21 634.50 0.50Q578-20 516-20L434-20Q372-20 315.50 3.50Q259 27 216.50 68Q174 109 148.50 164Q123 219 123 281L123 322L246 342L246 274Q246 237 261.50 204.50Q277 172 303 148Q329 124 363 110Q397 96 434 96L516 96Q553 96 587 107Q621 118 647.50 138.50Q674 159 689.50 188Q705 217 705 254Q705 309 681 344Q657 379 617.50 402.50Q578 426 527.50 441.50Q477 457 424 472.50Q371 488 320.50 508Q270 528 230.50 560.50Q191 593 167 642Q143 691 143 764Q143 826 167 877.50Q191 929 232 966Q273 1003 327.50 1023.50Q382 1044 444 1044L516 1044Q578 1044 633 1020.50Q688 997 729 956Q770 915 793.50 860Q817 805 817 743L817 739L694 719L694 750Q694 787 680 819.50Q666 852 642 876Q618 900 585.50 914Q553 928 516 928L444 928Q407 928 374.50 917Q342 906 318 885.50Q294 865 280 836Q266 807 266 770Q266 717 290 683.50Q314 650 353.50 627Q393 604 443.50 588.50Q494 573 546.50 556.50Q599 540 649.50 519Q700 498 739.50 465Q779 432 803 382.50Q827 333 827 260Z"  horiz-adv-x="940" vert-adv-y="2048"  />

      
      <glyph glyph-name="uni74" unicode="&#x74;" d="M496 0Q440 0 390.50 21Q341 42 304.50 79Q268 116 246.50 165Q225 214 225 270L225 907L41 907L41 1024L225 1024L225 1270L348 1290L348 1024L608 1024L608 907L348 907L348 264Q348 233 359.50 206.50Q371 180 391 160Q411 140 438 128.50Q465 117 496 117L608 117L608 0L496 0Z"  horiz-adv-x="711" vert-adv-y="2048"  />

      
      <glyph glyph-name="uni75" unicode="&#x75;" d="M766 0L698 104Q656 47 593 13.50Q530-20 455-20L424-20Q362-20 307 3.50Q252 27 211 68Q170 109 146.50 164Q123 219 123 281L123 1024L246 1024L246 274Q246 237 260 204.50Q274 172 298 148Q322 124 354.50 110Q387 96 424 96L506 96Q543 96 575.50 110Q608 124 632 148Q656 172 670 204.50Q684 237 684 274L684 1024L807 1024L807 0L766 0Z"  horiz-adv-x="930" vert-adv-y="2048"  />

      
      <glyph glyph-name="uni76" unicode="&#x76;" d="M444 0L383 0L20 1024L143 1024L410 248L414 195L418 248L684 1024L807 1024L444 0Z"  horiz-adv-x="827" vert-adv-y="2048"  />

      
      <glyph glyph-name="uni77" unicode="&#x77;" d="M985 0L918 0L678 772L674 825L670 772L430 0L362 0L20 1024L145 1024L389 250L393 197L397 250L637 1024L711 1024L950 250L954 197L958 250L1202 1024L1327 1024L985 0Z"  horiz-adv-x="1348" vert-adv-y="2048"  />

      
      <glyph glyph-name="uni78" unicode="&#x78;" d="M653 0L434 393L215 0L82 0L369 512L82 1024L215 1024L434 631L653 1024L786 1024L500 512L786 0L653 0Z"  horiz-adv-x="868" vert-adv-y="2048"  />

      
      <glyph glyph-name="uni79" unicode="&#x79;" d="M289-410L170-410L352 88L20 1024L143 1024L410 248L414 195L418 248L684 1024L807 1024L289-410Z"  horiz-adv-x="807" vert-adv-y="2048"  />

      
      <glyph glyph-name="uni7a" unicode="&#x7a;" d="M82 0L82 55L598 907L102 907L102 1024L766 1024L766 969L250 117L766 117L766 0L82 0Z"  horiz-adv-x="848" vert-adv-y="2048"  />

      
      <glyph glyph-name="uni7b" unicode="&#x7b;" d="M334 313Q334 365 317 407.50Q300 450 269.50 480Q239 510 196.50 526.50Q154 543 104 543L82 543L82 653L115 653Q163 655 203 672Q243 689 272 719Q301 749 317.50 790.50Q334 832 334 883L334 1253Q334 1330 360.50 1394.50Q387 1459 434.50 1506Q482 1553 546.50 1579.50Q611 1606 686 1606L696 1606L696 1495L686 1495Q636 1495 594 1478.50Q552 1462 521.50 1432Q491 1402 474 1359.50Q457 1317 457 1266L457 895Q457 798 414.50 720Q372 642 301 598Q372 552 414.50 475Q457 398 457 301L457-70Q457-121 474-163.50Q491-206 521.50-236Q552-266 594-282.50Q636-299 686-299L696-299L696-410L686-410Q611-410 546.50-383.50Q482-357 434.50-310Q387-263 360.50-198.50Q334-134 334-57L334 313Z"  horiz-adv-x="778" vert-adv-y="2048"  />

      
      <glyph glyph-name="uni7c" unicode="&#x7c;" d="M164-410L164 1606L293 1606L293-410L164-410Z"  horiz-adv-x="457" vert-adv-y="2048"  />

      
      <glyph glyph-name="uni7d" unicode="&#x7d;" d="M444-57Q444-134 417.50-198.50Q391-263 343.50-310Q296-357 231.50-383.50Q167-410 92-410L82-410L82-299L92-299Q142-299 184-282.50Q226-266 257-236Q288-206 305-163.50Q322-121 322-70L322 301Q322 398 363.50 475Q405 552 477 598Q405 643 363.50 720.50Q322 798 322 895L322 1266Q322 1317 305 1359.50Q288 1402 257 1432Q226 1462 184 1478.50Q142 1495 92 1495L82 1495L82 1606L92 1606Q167 1606 231.50 1579.50Q296 1553 343.50 1506Q391 1459 417.50 1394.50Q444 1330 444 1253L444 883Q444 831 461 788.50Q478 746 509 716Q540 686 582 669.50Q624 653 674 653L696 653L696 543L664 543Q616 542 575.50 524.50Q535 507 505.50 476.50Q476 446 460 404.50Q444 363 444 313L444-57Z"  horiz-adv-x="778" vert-adv-y="2048"  />

      
      <glyph glyph-name="uni7e" unicode="&#x7e;" d="M659 604Q687 604 708.50 615.50Q730 627 745 646.50Q760 666 768 692.50Q776 719 776 750L883 750Q883 696 869 649Q855 602 827 567Q799 532 756.50 512Q714 492 657 492Q618 492 585.50 503Q553 514 525 530Q497 546 472 565.50Q447 585 423 601Q399 617 375.50 628Q352 639 326 639Q272 639 240.50 598Q209 557 209 494L102 494Q102 548 116 595Q130 642 158.50 677Q187 712 229.50 732Q272 752 328 752Q386 752 430.50 729Q475 706 513 678Q551 650 586 627Q621 604 659 604Z"  horiz-adv-x="985" vert-adv-y="2048"  />

      
      <glyph glyph-name="unia1" unicode="&#xa1;" d="M305-410L123-410L178 590L250 590L305-410M291 1024L291 870L137 870L137 1024L291 1024Z"  horiz-adv-x="428" vert-adv-y="2048"  />

      
      <glyph glyph-name="unia2" unicode="&#xa2;" d="M184-20L262 231Q199 272 161 338.50Q123 405 123 485L123 948Q123 1010 146.50 1065Q170 1120 211 1161Q252 1202 307 1225.50Q362 1249 424 1249L506 1249Q523 1249 539.50 1247.50Q556 1246 571 1241L637 1454L745 1454L668 1202Q731 1162 769 1095.50Q807 1029 807 948L807 907L684 887L684 954Q684 992 670 1024.50Q656 1057 631 1081L393 303Q401 301 408.50 301Q416 301 424 301L506 301Q543 301 575.50 315Q608 329 632 353Q656 377 670 409.50Q684 442 684 479L684 547L807 526L807 485Q807 423 783.50 368Q760 313 719 272Q678 231 623 207.50Q568 184 506 184L424 184Q390 184 358 190L293-20L184-20M246 479Q246 442 260 409.50Q274 377 299 352L537 1128Q529 1130 521.50 1131.50Q514 1133 506 1133L424 1133Q387 1133 354.50 1119Q322 1105 298 1080.50Q274 1056 260 1023.50Q246 991 246 954L246 479L246 479Z"  horiz-adv-x="930" vert-adv-y="2048"  />

      
      <glyph glyph-name="unia3" unicode="&#xa3;" d="M303 686Q289 734 275 783.50Q261 833 250 884Q239 935 232 989.50Q225 1044 225 1102Q225 1175 252.50 1239Q280 1303 328 1351Q376 1399 440.50 1426.50Q505 1454 578 1454L606 1454Q679 1454 743 1426.50Q807 1399 855 1351Q903 1303 930.50 1239Q958 1175 958 1102L958 1065L829 1044L829 1102Q829 1150 811 1191.50Q793 1233 762 1264Q731 1295 689.50 1313Q648 1331 600 1331L584 1331Q536 1331 494.50 1313Q453 1295 421.50 1264Q390 1233 372 1191.50Q354 1150 354 1102Q354 1047 361.50 994.50Q369 942 381.50 891Q394 840 409.50 789Q425 738 440 686L780 686L780 584L467 584Q479 528 487.50 471Q496 414 496 352Q496 286 475.50 227.50Q455 169 420 123L965 123L965 0L123 0L123 123L158 123Q206 123 244.50 141Q283 159 310 190Q337 221 352 262.50Q367 304 367 352Q367 412 357.50 469.50Q348 527 334 584L123 584L123 686L303 686Z"  horiz-adv-x="1108" vert-adv-y="2048"  />

      
      <glyph glyph-name="unia4" unicode="&#xa4;" d="M215 1212L365 1061Q419 1101 482.50 1123Q546 1145 618 1145Q690 1145 754 1123Q818 1101 870 1061L1022 1212L1112 1120L963 971Q1001 917 1022.50 853.50Q1044 790 1044 719Q1044 648 1022.50 584Q1001 520 961 467L1114 313L1022 223L868 375Q816 337 753 316Q690 295 618 295Q547 295 483 316Q419 337 367 375L215 223L123 313L276 467Q236 520 215.50 584Q195 648 195 719Q195 790 215.50 853Q236 916 274 969L125 1120L215 1212M317 719Q317 655 340.50 599.50Q364 544 404.50 503Q445 462 500 438Q555 414 618 414Q682 414 737.50 438Q793 462 834 503Q875 544 898.50 599.50Q922 655 922 719Q922 783 898.50 839Q875 895 834 936.50Q793 978 737.50 1002Q682 1026 618 1026Q555 1026 500 1002Q445 978 404.50 936.50Q364 895 340.50 839Q317 783 317 719Z"  horiz-adv-x="1237" vert-adv-y="2048"  />

      
      <glyph glyph-name="unia5" unicode="&#xa5;" d="M397 711L41 1434L180 1434L475 838L770 1434L909 1434L553 711L827 711L827 608L541 608L541 475L827 475L827 373L541 373L541 0L412 0L412 373L123 373L123 475L412 475L412 608L123 608L123 711L397 711Z"  horiz-adv-x="950" vert-adv-y="2048"  />

      
      <glyph glyph-name="unia6" unicode="&#xa6;" d="M164-410L164 496L293 496L293-410L164-410M164 700L164 1606L293 1606L293 700L164 700Z"  horiz-adv-x="457" vert-adv-y="2048"  />

      
      <glyph glyph-name="unia7" unicode="&#xa7;" d="M143 1102Q143 1175 170.50 1239Q198 1303 246 1351Q294 1399 358.50 1426.50Q423 1454 496 1454L588 1454Q661 1454 725 1426.50Q789 1399 837 1351Q885 1303 912.50 1239Q940 1175 940 1102L940 1065L811 1044L811 1102Q811 1150 793 1191.50Q775 1233 744 1264Q713 1295 671.50 1313Q630 1331 582 1331L502 1331Q454 1331 412.50 1313Q371 1295 339.50 1264Q308 1233 290 1191.50Q272 1150 272 1102L272 1075Q272 1006 301 959Q330 912 378 878.50Q426 845 486.50 820.50Q547 796 611 770.50Q675 745 735.50 714.50Q796 684 844 639.50Q892 595 921 531Q950 467 950 375L950 332Q950 284 937 240Q924 196 901 158Q924 119 937 72Q950 25 950-35L950-78Q950-151 920.50-215Q891-279 841.50-327Q792-375 726.50-402.50Q661-430 588-430L485-430Q412-430 346.50-402.50Q281-375 231.50-327Q182-279 152.50-215Q123-151 123-78L123-20L252 0L252-78Q252-126 271.50-167.50Q291-209 324-240Q357-271 400.50-289Q444-307 492-307L582-307Q630-307 673-289Q716-271 749-240Q782-209 801.50-167.50Q821-126 821-78L821-35Q821 39 792 88Q763 137 715 171.50Q667 206 606.50 230Q546 254 482 278Q418 302 357.50 331Q297 360 249 403.50Q201 447 172 510Q143 573 143 666L143 692Q143 743 156.50 789Q170 835 195 877Q170 915 156.50 963.50Q143 1012 143 1075L143 1102M821 375Q821 444 795.50 491.50Q770 539 727.50 572.50Q685 606 630 629.50Q575 653 516.50 675Q458 697 399.50 721.50Q341 746 291 780Q272 739 272 692L272 666Q272 600 298 555Q324 510 366.50 477Q409 444 464.50 420Q520 396 579.50 372.50Q639 349 698 323Q757 297 807 260Q813 277 817 294.50Q821 312 821 332L821 375Z"  horiz-adv-x="1073" vert-adv-y="2048"  />

      
      <glyph glyph-name="unia8" unicode="&#xa8;" d="M205 1231L205 1384L358 1384L358 1231L205 1231M592 1231L592 1384L745 1384L745 1231L592 1231Z"  horiz-adv-x="950" vert-adv-y="2048"  />

      
      <glyph glyph-name="unia9" unicode="&#xa9;" d="M102 717Q102 819 128.50 913Q155 1007 203 1089Q251 1171 318 1238Q385 1305 467 1353Q549 1401 643.50 1427.50Q738 1454 840 1454Q942 1454 1036 1427.50Q1130 1401 1212 1353Q1294 1305 1361 1238Q1428 1171 1476 1089Q1524 1007 1550.50 913Q1577 819 1577 717Q1577 615 1550.50 520.50Q1524 426 1476 344.50Q1428 263 1361 195.50Q1294 128 1212 80.50Q1130 33 1036 6.50Q942-20 840-20Q738-20 643.50 6.50Q549 33 467 80.50Q385 128 318 195.50Q251 263 203 344.50Q155 426 128.50 520.50Q102 615 102 717M217 717Q217 586 265 471Q313 356 397 270.50Q481 185 594.50 135.50Q708 86 840 86Q971 86 1084.50 135.50Q1198 185 1282 270.50Q1366 356 1414 471Q1462 586 1462 717Q1462 848 1414 963Q1366 1078 1282 1163.50Q1198 1249 1084.50 1298.50Q971 1348 840 1348Q708 1348 594.50 1298.50Q481 1249 397 1163.50Q313 1078 265 963Q217 848 217 717M1100 485Q1100 437 1082 395.50Q1064 354 1032.50 323Q1001 292 959.50 274Q918 256 870 256L809 256Q761 256 719.50 274Q678 292 647 323Q616 354 598 395.50Q580 437 580 485L580 948Q580 996 598 1037.50Q616 1079 647 1110.50Q678 1142 719.50 1160Q761 1178 809 1178L870 1178Q918 1178 959.50 1160Q1001 1142 1032.50 1110.50Q1064 1079 1082 1037.50Q1100 996 1100 948L1100 897L985 879L985 948Q985 973 975.50 994.50Q966 1016 950 1032Q934 1048 912.50 1057.50Q891 1067 866 1067L813 1067Q789 1067 767 1057.50Q745 1048 729 1032Q713 1016 703.50 994.50Q694 973 694 948L694 485Q694 461 703.50 439.50Q713 418 729 402Q745 386 767 376.50Q789 367 813 367L866 367Q891 367 912.50 376.50Q934 386 950 402Q966 418 975.50 439.50Q985 461 985 485L985 555L1100 537L1100 485L1100 485Z"  horiz-adv-x="1679" vert-adv-y="2048"  />

      
      <glyph glyph-name="uniaa" unicode="&#xaa;" d="M532 795L496 848Q470 820 431.50 801Q393 782 352 782L334 782Q294 782 259 797Q224 812 198.50 838.50Q173 865 158 901Q143 937 143 979Q143 1019 158 1053.50Q173 1088 198.50 1113.50Q224 1139 259 1154Q294 1169 334 1169L479 1169L479 1255Q479 1275 471.50 1292.50Q464 1310 451 1323Q438 1336 420.50 1344Q403 1352 383 1352L340 1352Q320 1352 302.50 1344Q285 1336 272 1323Q259 1310 251.50 1292.50Q244 1275 244 1255L244 1219L150 1243Q150 1284 164.50 1320Q179 1356 204.50 1383Q230 1410 265 1426Q300 1442 340 1442L383 1442Q423 1442 457.50 1427Q492 1412 517.50 1386Q543 1360 558 1325Q573 1290 573 1251L573 795L532 795M479 1092L334 1092Q294 1092 266 1064Q238 1036 238 995L238 969Q238 950 245.50 932.50Q253 915 266 901.50Q279 888 296.50 880Q314 872 334 872L383 872Q403 872 420.50 880Q438 888 451 901.50Q464 915 471.50 932.50Q479 950 479 969L479 1092M143 631L573 631L573 553L143 553L143 631Z"  horiz-adv-x="717" vert-adv-y="2048"  />

      
      <glyph glyph-name="uniab" unicode="&#xab;" d="M797 84L420 467L797 850L838 809L588 467L838 125L797 84M459 84L82 467L459 850L500 809L250 467L500 125L459 84Z"  horiz-adv-x="961" vert-adv-y="2048"  />

      
      <glyph glyph-name="uniac" unicode="&#xac;" d="M1147 782L1147 309L1018 309L1018 653L123 653L123 782L1147 782Z"  horiz-adv-x="1270" vert-adv-y="2048"  />

      
      <glyph glyph-name="uniae" unicode="&#xae;" d="M102 717Q102 819 128.50 913Q155 1007 203 1089Q251 1171 318 1238Q385 1305 467 1353Q549 1401 643.50 1427.50Q738 1454 840 1454Q942 1454 1036 1427.50Q1130 1401 1212 1353Q1294 1305 1361 1238Q1428 1171 1476 1089Q1524 1007 1550.50 913Q1577 819 1577 717Q1577 615 1550.50 520.50Q1524 426 1476 344.50Q1428 263 1361 195.50Q1294 128 1212 80.50Q1130 33 1036 6.50Q942-20 840-20Q738-20 643.50 6.50Q549 33 467 80.50Q385 128 318 195.50Q251 263 203 344.50Q155 426 128.50 520.50Q102 615 102 717M217 717Q217 586 265 471Q313 356 397 270.50Q481 185 594.50 135.50Q708 86 840 86Q971 86 1084.50 135.50Q1198 185 1282 270.50Q1366 356 1414 471Q1462 586 1462 717Q1462 848 1414 963Q1366 1078 1282 1163.50Q1198 1249 1084.50 1298.50Q971 1348 840 1348Q708 1348 594.50 1298.50Q481 1249 397 1163.50Q313 1078 265 963Q217 848 217 717M1001 268L791 598L715 598L715 268L600 268L600 1165L891 1165Q939 1165 980.50 1147Q1022 1129 1053 1098Q1084 1067 1102 1025.50Q1120 984 1120 936L1120 829Q1120 786 1105.50 746.50Q1091 707 1065 676.50Q1039 646 1003.50 625.50Q968 605 926 600Q950 563 977.50 519.50Q1005 476 1032.50 432Q1060 388 1087 345.50Q1114 303 1137 268L1001 268M1006 936Q1006 960 996.50 982Q987 1004 971 1020Q955 1036 933 1045.50Q911 1055 887 1055L715 1055L715 709L887 709Q911 709 933 718.50Q955 728 971 744Q987 760 996.50 782Q1006 804 1006 829L1006 936Z"  horiz-adv-x="1679" vert-adv-y="2048"  />

      
      <glyph glyph-name="uniaf" unicode="&#xaf;" d="M205 1329L805 1329L805 1231L205 1231L205 1329Z"  horiz-adv-x="1010" vert-adv-y="2048"  />

      
      <glyph glyph-name="unib0" unicode="&#xb0;" d="M143 1169Q143 1228 165.50 1280Q188 1332 226.50 1370.50Q265 1409 317 1431.50Q369 1454 428 1454Q487 1454 539 1431.50Q591 1409 629.50 1370.50Q668 1332 690.50 1280Q713 1228 713 1169Q713 1110 690.50 1058.50Q668 1007 629.50 968.50Q591 930 539 907.50Q487 885 428 885Q369 885 317 907.50Q265 930 226.50 968.50Q188 1007 165.50 1058.50Q143 1110 143 1169M258 1169Q258 1134 271.50 1102.50Q285 1071 308 1047.50Q331 1024 362 1010.50Q393 997 428 997Q463 997 494 1010.50Q525 1024 548 1047.50Q571 1071 584.50 1102.50Q598 1134 598 1169Q598 1205 584.50 1236Q571 1267 548 1290.50Q525 1314 494 1327.50Q463 1341 428 1341Q393 1341 362 1327.50Q331 1314 308 1290.50Q285 1267 271.50 1236Q258 1205 258 1169Z"  horiz-adv-x="856" vert-adv-y="2048"  />

      
      <glyph glyph-name="unib1" unicode="&#xb1;" d="M528 205L528 653L82 653L82 782L528 782L528 1229L657 1229L657 782L1106 782L1106 653L657 653L657 205L1106 205L1106 76L82 76L82 205L528 205Z"  horiz-adv-x="1188" vert-adv-y="2048"  />

      
      <glyph glyph-name="unib2" unicode="&#xb2;" d="M340 1346Q305 1346 280.50 1321.50Q256 1297 256 1262L256 1214L158 1227L158 1262Q158 1300 172.50 1332.50Q187 1365 211 1389.50Q235 1414 267.50 1428Q300 1442 336 1442L365 1442Q403 1442 435.50 1428.50Q468 1415 492 1390.50Q516 1366 529.50 1331Q543 1296 543 1253Q543 1220 533 1184.50Q523 1149 506.50 1114Q490 1079 469 1045Q448 1011 426 981Q374 910 309 842L549 842L549 745L143 745L143 823Q228 892 294 965Q322 996 349 1031.50Q376 1067 397 1104Q418 1141 431 1179Q444 1217 444 1253Q444 1300 419.50 1323Q395 1346 362 1346L340 1346Z"  horiz-adv-x="692" vert-adv-y="2048"  />

      
      <glyph glyph-name="unib3" unicode="&#xb3;" d="M528 915Q528 879 514.50 846.50Q501 814 477 790Q453 766 420.50 751.50Q388 737 350 737L322 737Q284 737 251.50 751.50Q219 766 195 790Q171 814 157 846.50Q143 879 143 915L143 950L242 965L242 915Q242 881 266.50 857.50Q291 834 326 834L346 834Q381 834 405.50 857.50Q430 881 430 915L430 969Q430 1004 405.50 1028.50Q381 1053 346 1053L283 1053L283 1149L346 1149Q364 1149 379 1155.50Q394 1162 405.50 1173Q417 1184 423.50 1199Q430 1214 430 1231L430 1264Q430 1281 423.50 1296Q417 1311 405.50 1322Q394 1333 379 1339.50Q364 1346 346 1346L326 1346Q308 1346 293 1339.50Q278 1333 266.50 1322Q255 1311 248.50 1296Q242 1281 242 1264L242 1214L143 1229L143 1264Q143 1300 157 1332.50Q171 1365 195 1389Q219 1413 251.50 1427.50Q284 1442 322 1442L350 1442Q388 1442 420.50 1427.50Q453 1413 477 1389Q501 1365 514.50 1332.50Q528 1300 528 1264L528 1241Q528 1150 463 1100Q491 1075 509.50 1038Q528 1001 528 961L528 915L528 915Z"  horiz-adv-x="672" vert-adv-y="2048"  />

      
      <glyph glyph-name="unib4" unicode="&#xb4;" d="M297 1188L205 1188L369 1434L573 1434L297 1188Z"  horiz-adv-x="778" vert-adv-y="2048"  />

      
      <glyph glyph-name="unib5" unicode="&#xb5;" d="M123 1024L246 1024L246 274Q246 237 260 204.50Q274 172 298 148Q322 124 354.50 110Q387 96 424 96L506 96Q543 96 575.50 110Q608 124 632 148Q656 172 670 204.50Q684 237 684 274L684 1024L807 1024L807 0L766 0L698 104Q656 47 593 13.50Q530-20 455-20L424-20Q373-20 328-4.50Q283 11 246 39L246-295L123-295L123 1024Z"  horiz-adv-x="930" vert-adv-y="2048"  />

      
      <glyph glyph-name="unib6" unicode="&#xb6;" d="M686-410L557-410L557 633L455 633Q382 633 317.50 660.50Q253 688 205 736Q157 784 129.50 848Q102 912 102 985L102 1081Q102 1154 129.50 1218.50Q157 1283 205 1331Q253 1379 317.50 1406.50Q382 1434 455 1434L991 1434L991-410L862-410L862 1311L686 1311L686-410Z"  horiz-adv-x="1155" vert-adv-y="2048"  />

      
      <glyph glyph-name="unib7" unicode="&#xb7;" d="M143 655L143 809L297 809L297 655L143 655Z"  horiz-adv-x="440" vert-adv-y="2048"  />

      
      <glyph glyph-name="unib8" unicode="&#xb8;" d="M416 0L502 0L442-102Q451-106 467-116.50Q483-127 498.50-145Q514-163 525.50-188Q537-213 537-246Q537-284 523-315Q509-346 484.50-367.50Q460-389 426-400.50Q392-412 352-412Q307-412 270.50-394.50Q234-377 205-348L252-276Q257-282 266-290Q275-298 288.50-305Q302-312 318.50-317Q335-322 354-322Q391-322 416.50-301Q442-280 442-242Q442-218 432.50-200Q423-182 406.50-170Q390-158 369-153Q348-148 324-150L416 0Z"  horiz-adv-x="741" vert-adv-y="2048"  />

      
      <glyph glyph-name="unib9" unicode="&#xb9;" d="M143 745L143 842L299 842L299 1327L143 1262L143 1362L317 1434L397 1434L397 842L551 842L551 745L143 745Z"  horiz-adv-x="694" vert-adv-y="2048"  />

      
      <glyph glyph-name="uniba" unicode="&#xba;" d="M573 973Q573 934 558 899Q543 864 517.50 838Q492 812 457.50 797Q423 782 383 782L334 782Q294 782 259 797Q224 812 198.50 838Q173 864 158 899Q143 934 143 973L143 1251Q143 1290 158 1325Q173 1360 198.50 1386Q224 1412 259 1427Q294 1442 334 1442L383 1442Q423 1442 457.50 1427Q492 1412 517.50 1386Q543 1360 558 1325Q573 1290 573 1251L573 973L573 973M479 1255Q479 1275 471.50 1292.50Q464 1310 451 1323Q438 1336 420.50 1344Q403 1352 383 1352L334 1352Q314 1352 296.50 1344Q279 1336 266 1323Q253 1310 245.50 1292.50Q238 1275 238 1255L238 969Q238 950 245.50 932.50Q253 915 266 901.50Q279 888 296.50 880Q314 872 334 872L383 872Q403 872 420.50 880Q438 888 451 901.50Q464 915 471.50 932.50Q479 950 479 969L479 1255M143 631L573 631L573 553L143 553L143 631Z"  horiz-adv-x="717" vert-adv-y="2048"  />

      
      <glyph glyph-name="unibb" unicode="&#xbb;" d="M123 125L373 467L123 809L164 850L541 467L164 84L123 125M461 125L711 467L461 809L502 850L879 467L502 84L461 125Z"  horiz-adv-x="961" vert-adv-y="2048"  />

      
      <glyph glyph-name="unibc" unicode="&#xbc;" d="M1165 119L1165 0L1075 0L1075 119L815 119L815 166L1108 686L1165 686L1165 207L1221 207L1221 119L1165 119M1075 449L942 207L1075 207L1075 449M287 0L1104 1434L1219 1434L401 0L287 0M143 745L143 842L299 842L299 1327L143 1262L143 1362L317 1434L397 1434L397 842L551 842L551 745L143 745Z"  horiz-adv-x="1364" vert-adv-y="2048"  />

      
      <glyph glyph-name="unibd" unicode="&#xbd;" d="M143 745L143 842L299 842L299 1327L143 1262L143 1362L317 1434L397 1434L397 842L551 842L551 745L143 745M1096 600Q1061 600 1036.50 575.50Q1012 551 1012 516L1012 469L913 481L913 516Q913 554 927.50 586.50Q942 619 966.50 643.50Q991 668 1023.50 682Q1056 696 1092 696L1120 696Q1158 696 1190.50 683Q1223 670 1247 645.50Q1271 621 1284.50 586Q1298 551 1298 508Q1298 475 1288 439.50Q1278 404 1261.50 368.50Q1245 333 1224.50 299Q1204 265 1182 235Q1131 164 1065 96L1305 96L1305 0L899 0L899 78Q984 147 1050 220Q1078 251 1105 286.50Q1132 322 1153 359Q1174 396 1187 434Q1200 472 1200 508Q1200 554 1175 577Q1150 600 1118 600L1096 600M287 0L1104 1434L1219 1434L401 0L287 0Z"  horiz-adv-x="1448" vert-adv-y="2048"  />

      
      <glyph glyph-name="unibe" unicode="&#xbe;" d="M528 915Q528 879 514.50 846.50Q501 814 477 790Q453 766 420.50 751.50Q388 737 350 737L322 737Q284 737 251.50 751.50Q219 766 195 790Q171 814 157 846.50Q143 879 143 915L143 950L242 965L242 915Q242 881 266.50 857.50Q291 834 326 834L346 834Q381 834 405.50 857.50Q430 881 430 915L430 969Q430 1004 405.50 1028.50Q381 1053 346 1053L283 1053L283 1149L346 1149Q364 1149 379 1155.50Q394 1162 405.50 1173Q417 1184 423.50 1199Q430 1214 430 1231L430 1264Q430 1281 423.50 1296Q417 1311 405.50 1322Q394 1333 379 1339.50Q364 1346 346 1346L326 1346Q308 1346 293 1339.50Q278 1333 266.50 1322Q255 1311 248.50 1296Q242 1281 242 1264L242 1214L143 1229L143 1264Q143 1300 157 1332.50Q171 1365 195 1389Q219 1413 251.50 1427.50Q284 1442 322 1442L350 1442Q388 1442 420.50 1427.50Q453 1413 477 1389Q501 1365 514.50 1332.50Q528 1300 528 1264L528 1241Q528 1150 463 1100Q491 1075 509.50 1038Q528 1001 528 961L528 915L528 915M1165 119L1165 0L1075 0L1075 119L815 119L815 166L1108 686L1165 686L1165 207L1221 207L1221 119L1165 119M1075 449L942 207L1075 207L1075 449M287 0L1104 1434L1219 1434L401 0L287 0Z"  horiz-adv-x="1364" vert-adv-y="2048"  />

      
      <glyph glyph-name="unibf" unicode="&#xbf;" d="M618 1024L618 870L465 870L465 1024L618 1024M477 590L606 590L606 551Q606 485 590 436Q574 387 547.50 350Q521 313 487.50 284Q454 255 418.50 228.50Q383 202 349.50 175Q316 148 289.50 115Q263 82 247 40Q231-2 231-59L231-78Q231-126 249-167.50Q267-209 298.50-240Q330-271 371.50-289Q413-307 461-307L489-307Q537-307 578.50-289Q620-271 651.50-240Q683-209 701-167.50Q719-126 719-78L719-20L848-41L848-78Q848-151 820.50-215Q793-279 745-327Q697-375 633-402.50Q569-430 496-430L455-430Q382-430 317.50-402.50Q253-375 205-327Q157-279 129.50-215Q102-151 102-78L102-59Q102 10 118 62Q134 114 160.50 154Q187 194 220.50 225Q254 256 289.50 283Q325 310 358.50 336Q392 362 418.50 393Q445 424 461 462Q477 500 477 551L477 590Z"  horiz-adv-x="950" vert-adv-y="2048"  />

      
      <glyph glyph-name="unic0" unicode="&#xc0;" d="M702 334L248 334L154 0L20 0L440 1434L508 1434L930 0L797 0L702 334M283 457L668 457L479 1118L475 1171L471 1118L283 457M250 1843L455 1843L618 1597L526 1597L250 1843Z"  horiz-adv-x="950" vert-adv-y="2048"  />

      
      <glyph glyph-name="unic1" unicode="&#xc1;" d="M702 334L248 334L154 0L20 0L440 1434L508 1434L930 0L797 0L702 334M283 457L668 457L479 1118L475 1171L471 1118L283 457M424 1597L332 1597L496 1843L700 1843L424 1597Z"  horiz-adv-x="950" vert-adv-y="2048"  />

      
      <glyph glyph-name="unic2" unicode="&#xc2;" d="M702 334L248 334L154 0L20 0L440 1434L508 1434L930 0L797 0L702 334M283 457L668 457L479 1118L475 1171L471 1118L283 457M741 1597L618 1597L475 1761L332 1597L209 1597L414 1843L537 1843L741 1597Z"  horiz-adv-x="950" vert-adv-y="2048"  />

      
      <glyph glyph-name="unic3" unicode="&#xc3;" d="M702 334L248 334L154 0L20 0L440 1434L508 1434L930 0L797 0L702 334M283 457L668 457L479 1118L475 1171L471 1118L283 457M612 1729Q654 1729 676 1760.50Q698 1792 698 1843L793 1843Q793 1798 781.50 1759Q770 1720 747 1691Q724 1662 689.50 1645Q655 1628 610 1628Q562 1628 525.50 1646Q489 1664 457.50 1685.50Q426 1707 397.50 1725Q369 1743 338 1743Q296 1743 275 1711.50Q254 1680 254 1630L160 1630Q160 1675 171 1713.50Q182 1752 204.50 1781Q227 1810 261.50 1826.50Q296 1843 342 1843Q387 1843 421.50 1825Q456 1807 486.50 1786Q517 1765 547 1747Q577 1729 612 1729Z"  horiz-adv-x="950" vert-adv-y="2048"  />

      
      <glyph glyph-name="unic4" unicode="&#xc4;" d="M702 334L248 334L154 0L20 0L440 1434L508 1434L930 0L797 0L702 334M283 457L668 457L479 1118L475 1171L471 1118L283 457M205 1640L205 1794L358 1794L358 1640L205 1640M592 1640L592 1794L745 1794L745 1640L592 1640Z"  horiz-adv-x="950" vert-adv-y="2048"  />

      
      <glyph glyph-name="unic5" unicode="&#xc5;" d="M264 1546Q264 1590 280.50 1628.50Q297 1667 325.50 1696Q354 1725 392.50 1742Q431 1759 475 1759Q519 1759 557.50 1742Q596 1725 625 1696Q654 1667 671 1628.50Q688 1590 688 1546Q688 1510 676.50 1477.50Q665 1445 644.50 1418Q624 1391 596 1371.50Q568 1352 535 1343L930 0L797 0L702 334L248 334L154 0L20 0L414 1343Q381 1353 353.50 1372.50Q326 1392 306 1418.50Q286 1445 275 1477.50Q264 1510 264 1546M283 457L668 457L479 1118L475 1171L471 1118L283 457M367 1546Q367 1524 375.50 1504Q384 1484 399 1469Q414 1454 433.50 1445Q453 1436 475 1436Q498 1436 518.50 1445Q539 1454 554 1469Q569 1484 577.50 1504Q586 1524 586 1546Q586 1569 577.50 1589.50Q569 1610 554 1625.50Q539 1641 518.50 1650Q498 1659 475 1659Q453 1659 433.50 1650Q414 1641 399 1625.50Q384 1610 375.50 1589.50Q367 1569 367 1546Z"  horiz-adv-x="950" vert-adv-y="2048"  />

      
      <glyph glyph-name="unic6" unicode="&#xc6;" d="M879 0L879 334L352 334L154 0L20 0L879 1434L1686 1434L1686 1311L1008 1311L1008 778L1556 778L1556 655L1008 655L1008 123L1686 123L1686 0L879 0M879 457L879 1229L858 1176L426 457L879 457Z"  horiz-adv-x="1767" vert-adv-y="2048"  />

      
      <glyph glyph-name="unic7" unicode="&#xc7;" d="M508-20L496-20Q423-20 358.50 7.50Q294 35 246 83Q198 131 170.50 195Q143 259 143 332L143 1102Q143 1175 170.50 1239Q198 1303 246 1351Q294 1399 358.50 1426.50Q423 1454 496 1454L598 1454Q671 1454 735 1426.50Q799 1399 847 1351Q895 1303 922.50 1239Q950 1175 950 1102L950 1044L821 1024L821 1102Q821 1150 803 1191.50Q785 1233 754 1264Q723 1295 681.50 1313Q640 1331 592 1331L502 1331Q454 1331 412.50 1313Q371 1295 339.50 1264Q308 1233 290 1191.50Q272 1150 272 1102L272 332Q272 284 290 242.50Q308 201 339.50 169.50Q371 138 412.50 120Q454 102 502 102L592 102Q640 102 681.50 120Q723 138 754 169.50Q785 201 803 242.50Q821 284 821 332L821 410L950 389L950 332Q950 259 922.50 195Q895 131 847 83Q799 35 735 7.50Q671-20 598-20L594-20L547-102Q556-106 572-116.50Q588-127 603-145Q618-163 629.50-188Q641-213 641-246Q641-284 627-315Q613-346 588.50-367.50Q564-389 530.50-400.50Q497-412 457-412Q412-412 375-394.50Q338-377 309-348L356-276Q361-282 370.50-290Q380-298 393.50-305Q407-312 423.50-317Q440-322 459-322Q496-322 521.50-301Q547-280 547-242Q547-218 537.50-200Q528-182 511.50-170Q495-158 473.50-153Q452-148 428-150L508-20Z"  horiz-adv-x="1073" vert-adv-y="2048"  />

      
      <glyph glyph-name="unic8" unicode="&#xc8;" d="M164 0L164 1434L971 1434L971 1311L293 1311L293 778L842 778L842 655L293 655L293 123L971 123L971 0L164 0M301 1843L506 1843L670 1597L578 1597L301 1843Z"  horiz-adv-x="1053" vert-adv-y="2048"  />

      
      <glyph glyph-name="unic9" unicode="&#xc9;" d="M164 0L164 1434L971 1434L971 1311L293 1311L293 778L842 778L842 655L293 655L293 123L971 123L971 0L164 0M516 1597L424 1597L588 1843L793 1843L516 1597Z"  horiz-adv-x="1053" vert-adv-y="2048"  />

      
      <glyph glyph-name="unica" unicode="&#xca;" d="M164 0L164 1434L971 1434L971 1311L293 1311L293 778L842 778L842 655L293 655L293 123L971 123L971 0L164 0M834 1597L711 1597L567 1761L424 1597L301 1597L506 1843L629 1843L834 1597Z"  horiz-adv-x="1053" vert-adv-y="2048"  />

      
      <glyph glyph-name="unicb" unicode="&#xcb;" d="M164 0L164 1434L971 1434L971 1311L293 1311L293 778L842 778L842 655L293 655L293 123L971 123L971 0L164 0M256 1640L256 1794L410 1794L410 1640L256 1640M643 1640L643 1794L797 1794L797 1640L643 1640Z"  horiz-adv-x="1053" vert-adv-y="2048"  />

      
      <glyph glyph-name="unicc" unicode="&#xcc;" d="M164 0L164 1434L293 1434L293 0L164 0M4 1843L209 1843L373 1597L281 1597L4 1843Z"  horiz-adv-x="457" vert-adv-y="2048"  />

      
      <glyph glyph-name="unicd" unicode="&#xcd;" d="M164 0L164 1434L293 1434L293 0L164 0M178 1597L86 1597L250 1843L455 1843L178 1597Z"  horiz-adv-x="457" vert-adv-y="2048"  />

      
      <glyph glyph-name="unice" unicode="&#xce;" d="M164 0L164 1434L293 1434L293 0L164 0M496 1597L373 1597L229 1761L86 1597L-37 1597L168 1843L291 1843L496 1597Z"  horiz-adv-x="457" vert-adv-y="2048"  />

      
      <glyph glyph-name="unicf" unicode="&#xcf;" d="M164 0L164 1434L293 1434L293 0L164 0M-41 1640L-41 1794L113 1794L113 1640L-41 1640M346 1640L346 1794L500 1794L500 1640L346 1640Z"  horiz-adv-x="457" vert-adv-y="2048"  />

      
      <glyph glyph-name="unid0" unicode="&#xd0;" d="M188 686L188 1434L643 1434Q716 1434 780 1406.50Q844 1379 892 1331Q940 1283 967.50 1218.50Q995 1154 995 1081L995 352Q995 279 967.50 215Q940 151 892 103Q844 55 780 27.50Q716 0 643 0L188 0L188 584L61 584L61 686L188 686M866 1081Q866 1129 848 1170.50Q830 1212 799 1243.50Q768 1275 726.50 1293Q685 1311 637 1311L317 1311L317 686L557 686L557 584L317 584L317 123L637 123Q685 123 726.50 141Q768 159 799 190Q830 221 848 262.50Q866 304 866 352L866 1081Z"  horiz-adv-x="1139" vert-adv-y="2048"  />

      
      <glyph glyph-name="unid1" unicode="&#xd1;" d="M903 0L305 1044L293 1106L293 0L164 0L164 1434L231 1434L829 389L842 328L842 1434L971 1434L971 0L903 0M702 1729Q744 1729 766 1760.50Q788 1792 788 1843L883 1843Q883 1798 871.50 1759Q860 1720 837 1691Q814 1662 779.50 1645Q745 1628 700 1628Q652 1628 615.50 1646Q579 1664 547.50 1685.50Q516 1707 487.50 1725Q459 1743 428 1743Q386 1743 365 1711.50Q344 1680 344 1630L250 1630Q250 1675 261 1713.50Q272 1752 294.50 1781Q317 1810 351.50 1826.50Q386 1843 432 1843Q477 1843 511.50 1825Q546 1807 576.50 1786Q607 1765 637 1747Q667 1729 702 1729Z"  horiz-adv-x="1135" vert-adv-y="2048"  />

      
      <glyph glyph-name="unid2" unicode="&#xd2;" d="M950 332Q950 259 922.50 195Q895 131 847 83Q799 35 735 7.50Q671-20 598-20L496-20Q423-20 358.50 7.50Q294 35 246 83Q198 131 170.50 195Q143 259 143 332L143 1102Q143 1175 170.50 1239Q198 1303 246 1351Q294 1399 358.50 1426.50Q423 1454 496 1454L598 1454Q671 1454 735 1426.50Q799 1399 847 1351Q895 1303 922.50 1239Q950 1175 950 1102L950 332L950 332M821 1102Q821 1150 803 1191.50Q785 1233 754 1264Q723 1295 681.50 1313Q640 1331 592 1331L502 1331Q454 1331 412.50 1313Q371 1295 339.50 1264Q308 1233 290 1191.50Q272 1150 272 1102L272 332Q272 284 290 242.50Q308 201 339.50 169.50Q371 138 412.50 120Q454 102 502 102L592 102Q640 102 681.50 120Q723 138 754 169.50Q785 201 803 242.50Q821 284 821 332L821 1102M342 1843L547 1843L711 1597L618 1597L342 1843Z"  horiz-adv-x="1094" vert-adv-y="2048"  />

      
      <glyph glyph-name="unid3" unicode="&#xd3;" d="M950 332Q950 259 922.50 195Q895 131 847 83Q799 35 735 7.50Q671-20 598-20L496-20Q423-20 358.50 7.50Q294 35 246 83Q198 131 170.50 195Q143 259 143 332L143 1102Q143 1175 170.50 1239Q198 1303 246 1351Q294 1399 358.50 1426.50Q423 1454 496 1454L598 1454Q671 1454 735 1426.50Q799 1399 847 1351Q895 1303 922.50 1239Q950 1175 950 1102L950 332L950 332M821 1102Q821 1150 803 1191.50Q785 1233 754 1264Q723 1295 681.50 1313Q640 1331 592 1331L502 1331Q454 1331 412.50 1313Q371 1295 339.50 1264Q308 1233 290 1191.50Q272 1150 272 1102L272 332Q272 284 290 242.50Q308 201 339.50 169.50Q371 138 412.50 120Q454 102 502 102L592 102Q640 102 681.50 120Q723 138 754 169.50Q785 201 803 242.50Q821 284 821 332L821 1102M516 1597L424 1597L588 1843L793 1843L516 1597Z"  horiz-adv-x="1094" vert-adv-y="2048"  />

      
      <glyph glyph-name="unid4" unicode="&#xd4;" d="M950 332Q950 259 922.50 195Q895 131 847 83Q799 35 735 7.50Q671-20 598-20L496-20Q423-20 358.50 7.50Q294 35 246 83Q198 131 170.50 195Q143 259 143 332L143 1102Q143 1175 170.50 1239Q198 1303 246 1351Q294 1399 358.50 1426.50Q423 1454 496 1454L598 1454Q671 1454 735 1426.50Q799 1399 847 1351Q895 1303 922.50 1239Q950 1175 950 1102L950 332L950 332M821 1102Q821 1150 803 1191.50Q785 1233 754 1264Q723 1295 681.50 1313Q640 1331 592 1331L502 1331Q454 1331 412.50 1313Q371 1295 339.50 1264Q308 1233 290 1191.50Q272 1150 272 1102L272 332Q272 284 290 242.50Q308 201 339.50 169.50Q371 138 412.50 120Q454 102 502 102L592 102Q640 102 681.50 120Q723 138 754 169.50Q785 201 803 242.50Q821 284 821 332L821 1102M813 1597L690 1597L547 1761L403 1597L281 1597L485 1843L608 1843L813 1597Z"  horiz-adv-x="1094" vert-adv-y="2048"  />

      
      <glyph glyph-name="unid5" unicode="&#xd5;" d="M950 332Q950 259 922.50 195Q895 131 847 83Q799 35 735 7.50Q671-20 598-20L496-20Q423-20 358.50 7.50Q294 35 246 83Q198 131 170.50 195Q143 259 143 332L143 1102Q143 1175 170.50 1239Q198 1303 246 1351Q294 1399 358.50 1426.50Q423 1454 496 1454L598 1454Q671 1454 735 1426.50Q799 1399 847 1351Q895 1303 922.50 1239Q950 1175 950 1102L950 332L950 332M821 1102Q821 1150 803 1191.50Q785 1233 754 1264Q723 1295 681.50 1313Q640 1331 592 1331L502 1331Q454 1331 412.50 1313Q371 1295 339.50 1264Q308 1233 290 1191.50Q272 1150 272 1102L272 332Q272 284 290 242.50Q308 201 339.50 169.50Q371 138 412.50 120Q454 102 502 102L592 102Q640 102 681.50 120Q723 138 754 169.50Q785 201 803 242.50Q821 284 821 332L821 1102M682 1729Q724 1729 746 1760.50Q768 1792 768 1843L862 1843Q862 1798 850.50 1759Q839 1720 816.50 1691Q794 1662 759.50 1645Q725 1628 680 1628Q632 1628 595 1646Q558 1664 526.50 1685.50Q495 1707 466.50 1725Q438 1743 408 1743Q366 1743 345 1711.50Q324 1680 324 1630L229 1630Q229 1675 240.50 1713.50Q252 1752 274.50 1781Q297 1810 331.50 1826.50Q366 1843 412 1843Q456 1843 490.50 1825Q525 1807 556 1786Q587 1765 617 1747Q647 1729 682 1729Z"  horiz-adv-x="1094" vert-adv-y="2048"  />

      
      <glyph glyph-name="unid6" unicode="&#xd6;" d="M950 332Q950 259 922.50 195Q895 131 847 83Q799 35 735 7.50Q671-20 598-20L496-20Q423-20 358.50 7.50Q294 35 246 83Q198 131 170.50 195Q143 259 143 332L143 1102Q143 1175 170.50 1239Q198 1303 246 1351Q294 1399 358.50 1426.50Q423 1454 496 1454L598 1454Q671 1454 735 1426.50Q799 1399 847 1351Q895 1303 922.50 1239Q950 1175 950 1102L950 332L950 332M821 1102Q821 1150 803 1191.50Q785 1233 754 1264Q723 1295 681.50 1313Q640 1331 592 1331L502 1331Q454 1331 412.50 1313Q371 1295 339.50 1264Q308 1233 290 1191.50Q272 1150 272 1102L272 332Q272 284 290 242.50Q308 201 339.50 169.50Q371 138 412.50 120Q454 102 502 102L592 102Q640 102 681.50 120Q723 138 754 169.50Q785 201 803 242.50Q821 284 821 332L821 1102M276 1640L276 1794L430 1794L430 1640L276 1640M664 1640L664 1794L817 1794L817 1640L664 1640Z"  horiz-adv-x="1094" vert-adv-y="2048"  />

      
      <glyph glyph-name="unid7" unicode="&#xd7;" d="M195 1212L598 809L1001 1212L1092 1120L690 719L1094 313L1001 223L598 627L195 223L102 313L506 719L104 1120L195 1212Z"  horiz-adv-x="1196" vert-adv-y="2048"  />

      
      <glyph glyph-name="unid8" unicode="&#xd8;" d="M102-61L201 137Q173 179 158 228.50Q143 278 143 332L143 1102Q143 1175 170.50 1239Q198 1303 246 1351Q294 1399 358.50 1426.50Q423 1454 496 1454L598 1454Q661 1454 718.50 1432.50Q776 1411 821 1374L883 1495L991 1495L891 1294Q919 1252 934.50 1204Q950 1156 950 1102L950 332Q950 259 922.50 195Q895 131 847 83Q799 35 735 7.50Q671-20 598-20L496-20Q431-20 374 0.50Q317 21 270 59L211-61L102-61M821 1102Q821 1113 820 1124.50Q819 1136 817 1147L330 178Q362 143 405.50 122.50Q449 102 502 102L592 102Q640 102 681.50 120Q723 138 754 169.50Q785 201 803 242.50Q821 284 821 332L821 1102M272 332Q272 319 272.50 308.50Q273 298 276 287L762 1255Q731 1291 687 1311Q643 1331 592 1331L502 1331Q454 1331 412.50 1313Q371 1295 339.50 1264Q308 1233 290 1191.50Q272 1150 272 1102L272 332L272 332Z"  horiz-adv-x="1094" vert-adv-y="2048"  />

      
      <glyph glyph-name="unid9" unicode="&#xd9;" d="M950 332Q950 259 922.50 195Q895 131 847 83Q799 35 735 7.50Q671-20 598-20L496-20Q423-20 358.50 7.50Q294 35 246 83Q198 131 170.50 195Q143 259 143 332L143 1434L272 1434L272 332Q272 284 290 242.50Q308 201 339.50 169.50Q371 138 412.50 120Q454 102 502 102L592 102Q640 102 681.50 120Q723 138 754 169.50Q785 201 803 242.50Q821 284 821 332L821 1434L950 1434L950 332L950 332M301 1843L506 1843L670 1597L578 1597L301 1843Z"  horiz-adv-x="1094" vert-adv-y="2048"  />

      
      <glyph glyph-name="unida" unicode="&#xda;" d="M950 332Q950 259 922.50 195Q895 131 847 83Q799 35 735 7.50Q671-20 598-20L496-20Q423-20 358.50 7.50Q294 35 246 83Q198 131 170.50 195Q143 259 143 332L143 1434L272 1434L272 332Q272 284 290 242.50Q308 201 339.50 169.50Q371 138 412.50 120Q454 102 502 102L592 102Q640 102 681.50 120Q723 138 754 169.50Q785 201 803 242.50Q821 284 821 332L821 1434L950 1434L950 332L950 332M516 1597L424 1597L588 1843L793 1843L516 1597Z"  horiz-adv-x="1094" vert-adv-y="2048"  />

      
      <glyph glyph-name="unidb" unicode="&#xdb;" d="M950 332Q950 259 922.50 195Q895 131 847 83Q799 35 735 7.50Q671-20 598-20L496-20Q423-20 358.50 7.50Q294 35 246 83Q198 131 170.50 195Q143 259 143 332L143 1434L272 1434L272 332Q272 284 290 242.50Q308 201 339.50 169.50Q371 138 412.50 120Q454 102 502 102L592 102Q640 102 681.50 120Q723 138 754 169.50Q785 201 803 242.50Q821 284 821 332L821 1434L950 1434L950 332L950 332M813 1597L690 1597L547 1761L403 1597L281 1597L485 1843L608 1843L813 1597Z"  horiz-adv-x="1094" vert-adv-y="2048"  />

      
      <glyph glyph-name="unidc" unicode="&#xdc;" d="M950 332Q950 259 922.50 195Q895 131 847 83Q799 35 735 7.50Q671-20 598-20L496-20Q423-20 358.50 7.50Q294 35 246 83Q198 131 170.50 195Q143 259 143 332L143 1434L272 1434L272 332Q272 284 290 242.50Q308 201 339.50 169.50Q371 138 412.50 120Q454 102 502 102L592 102Q640 102 681.50 120Q723 138 754 169.50Q785 201 803 242.50Q821 284 821 332L821 1434L950 1434L950 332L950 332M276 1640L276 1794L430 1794L430 1640L276 1640M664 1640L664 1794L817 1794L817 1640L664 1640Z"  horiz-adv-x="1094" vert-adv-y="2048"  />

      
      <glyph glyph-name="unidd" unicode="&#xdd;" d="M541 686L541 0L412 0L412 684L41 1434L180 1434L475 838L770 1434L909 1434L541 686M465 1597L373 1597L537 1843L741 1843L465 1597Z"  horiz-adv-x="950" vert-adv-y="2048"  />

      
      <glyph glyph-name="unide" unicode="&#xde;" d="M971 682Q971 609 943.50 545Q916 481 868 433Q820 385 755.50 357.50Q691 330 618 330L293 330L293 0L164 0L164 1434L293 1434L293 1151L618 1151Q691 1151 755.50 1123.50Q820 1096 868 1048Q916 1000 943.50 936Q971 872 971 799L971 682L971 682M842 799Q842 847 824 888.50Q806 930 774.50 961Q743 992 701.50 1010Q660 1028 612 1028L293 1028L293 453L612 453Q660 453 701.50 471Q743 489 774.50 520Q806 551 824 592.50Q842 634 842 682L842 799Z"  horiz-adv-x="1053" vert-adv-y="2048"  />

      
      <glyph glyph-name="unidf" unicode="&#xdf;" d="M471 117L582 117Q630 117 671.50 135Q713 153 744 184Q775 215 793 256.50Q811 298 811 346L811 477Q811 525 793 566.50Q775 608 744 639.50Q713 671 671.50 689Q630 707 582 707L471 707L471 823L582 823Q630 823 671.50 841Q713 859 744 890.50Q775 922 793 963.50Q811 1005 811 1053L811 1108Q811 1156 793 1197.50Q775 1239 744 1270Q713 1301 671.50 1319Q630 1337 582 1337L522 1337Q474 1337 432.50 1319Q391 1301 360 1270Q329 1239 311 1197.50Q293 1156 293 1108L293 0L170 0L170 1102Q170 1175 197 1239Q224 1303 270.50 1351Q317 1399 380 1426.50Q443 1454 516 1454L582 1454Q655 1454 719 1426.50Q783 1399 831 1351Q879 1303 906.50 1239Q934 1175 934 1102L934 1077Q934 1026 920.50 979.50Q907 933 882.50 893Q858 853 823.50 820.50Q789 788 748 766Q789 744 823.50 711.50Q858 679 882.50 639Q907 599 920.50 552.50Q934 506 934 455L934 352Q934 279 906.50 215Q879 151 831 103Q783 55 719 27.50Q655 0 582 0L471 0L471 117Z"  horiz-adv-x="1053" vert-adv-y="2048"  />

      
      <glyph glyph-name="unie0" unicode="&#xe0;" d="M766 0L698 102Q656 47 593 13.50Q530-20 455-20L424-20Q362-20 307 3.50Q252 27 211 68Q170 109 146.50 164Q123 219 123 281L123 291Q123 353 146.50 408Q170 463 211 504Q252 545 307 568.50Q362 592 424 592L684 592L684 750Q684 787 670 819.50Q656 852 632 876Q608 900 575.50 914Q543 928 506 928L434 928Q397 928 364.50 914Q332 900 308 876Q284 852 270 819.50Q256 787 256 750L256 713L133 733L133 743Q133 805 156.50 860Q180 915 221 956Q262 997 317 1020.50Q372 1044 434 1044L506 1044Q568 1044 623 1020.50Q678 997 719 956Q760 915 783.50 860Q807 805 807 743L807 0L766 0M684 496L424 496Q387 496 354.50 482Q322 468 298 443.50Q274 419 260 386.50Q246 354 246 317L246 274Q246 237 260 204.50Q274 172 298 148Q322 124 354.50 110Q387 96 424 96L506 96Q543 96 575.50 110Q608 124 632 148Q656 172 670 204.50Q684 237 684 274L684 496M240 1434L444 1434L608 1188L516 1188L240 1434Z"  horiz-adv-x="930" vert-adv-y="2048"  />

      
      <glyph glyph-name="unie1" unicode="&#xe1;" d="M766 0L698 102Q656 47 593 13.50Q530-20 455-20L424-20Q362-20 307 3.50Q252 27 211 68Q170 109 146.50 164Q123 219 123 281L123 291Q123 353 146.50 408Q170 463 211 504Q252 545 307 568.50Q362 592 424 592L684 592L684 750Q684 787 670 819.50Q656 852 632 876Q608 900 575.50 914Q543 928 506 928L434 928Q397 928 364.50 914Q332 900 308 876Q284 852 270 819.50Q256 787 256 750L256 713L133 733L133 743Q133 805 156.50 860Q180 915 221 956Q262 997 317 1020.50Q372 1044 434 1044L506 1044Q568 1044 623 1020.50Q678 997 719 956Q760 915 783.50 860Q807 805 807 743L807 0L766 0M684 496L424 496Q387 496 354.50 482Q322 468 298 443.50Q274 419 260 386.50Q246 354 246 317L246 274Q246 237 260 204.50Q274 172 298 148Q322 124 354.50 110Q387 96 424 96L506 96Q543 96 575.50 110Q608 124 632 148Q656 172 670 204.50Q684 237 684 274L684 496M414 1188L322 1188L485 1434L690 1434L414 1188Z"  horiz-adv-x="930" vert-adv-y="2048"  />

      
      <glyph glyph-name="unie2" unicode="&#xe2;" d="M766 0L698 102Q656 47 593 13.50Q530-20 455-20L424-20Q362-20 307 3.50Q252 27 211 68Q170 109 146.50 164Q123 219 123 281L123 291Q123 353 146.50 408Q170 463 211 504Q252 545 307 568.50Q362 592 424 592L684 592L684 750Q684 787 670 819.50Q656 852 632 876Q608 900 575.50 914Q543 928 506 928L434 928Q397 928 364.50 914Q332 900 308 876Q284 852 270 819.50Q256 787 256 750L256 713L133 733L133 743Q133 805 156.50 860Q180 915 221 956Q262 997 317 1020.50Q372 1044 434 1044L506 1044Q568 1044 623 1020.50Q678 997 719 956Q760 915 783.50 860Q807 805 807 743L807 0L766 0M684 496L424 496Q387 496 354.50 482Q322 468 298 443.50Q274 419 260 386.50Q246 354 246 317L246 274Q246 237 260 204.50Q274 172 298 148Q322 124 354.50 110Q387 96 424 96L506 96Q543 96 575.50 110Q608 124 632 148Q656 172 670 204.50Q684 237 684 274L684 496M752 1188L629 1188L485 1352L342 1188L219 1188L424 1434L547 1434L752 1188Z"  horiz-adv-x="930" vert-adv-y="2048"  />

      
      <glyph glyph-name="unie3" unicode="&#xe3;" d="M766 0L698 102Q656 47 593 13.50Q530-20 455-20L424-20Q362-20 307 3.50Q252 27 211 68Q170 109 146.50 164Q123 219 123 281L123 291Q123 353 146.50 408Q170 463 211 504Q252 545 307 568.50Q362 592 424 592L684 592L684 750Q684 787 670 819.50Q656 852 632 876Q608 900 575.50 914Q543 928 506 928L434 928Q397 928 364.50 914Q332 900 308 876Q284 852 270 819.50Q256 787 256 750L256 713L133 733L133 743Q133 805 156.50 860Q180 915 221 956Q262 997 317 1020.50Q372 1044 434 1044L506 1044Q568 1044 623 1020.50Q678 997 719 956Q760 915 783.50 860Q807 805 807 743L807 0L766 0M684 496L424 496Q387 496 354.50 482Q322 468 298 443.50Q274 419 260 386.50Q246 354 246 317L246 274Q246 237 260 204.50Q274 172 298 148Q322 124 354.50 110Q387 96 424 96L506 96Q543 96 575.50 110Q608 124 632 148Q656 172 670 204.50Q684 237 684 274L684 496M602 1319Q644 1319 666 1351Q688 1383 688 1434L782 1434Q782 1389 770.50 1350Q759 1311 736.50 1282Q714 1253 679.50 1236Q645 1219 600 1219Q552 1219 515.50 1237Q479 1255 447.50 1276Q416 1297 387.50 1315Q359 1333 328 1333Q286 1333 265 1301.50Q244 1270 244 1221L150 1221Q150 1265 161 1304Q172 1343 194.50 1372Q217 1401 251.50 1417.50Q286 1434 332 1434Q377 1434 411.50 1416Q446 1398 476.50 1376.50Q507 1355 537 1337Q567 1319 602 1319Z"  horiz-adv-x="930" vert-adv-y="2048"  />

      
      <glyph glyph-name="unie4" unicode="&#xe4;" d="M766 0L698 102Q656 47 593 13.50Q530-20 455-20L424-20Q362-20 307 3.50Q252 27 211 68Q170 109 146.50 164Q123 219 123 281L123 291Q123 353 146.50 408Q170 463 211 504Q252 545 307 568.50Q362 592 424 592L684 592L684 750Q684 787 670 819.50Q656 852 632 876Q608 900 575.50 914Q543 928 506 928L434 928Q397 928 364.50 914Q332 900 308 876Q284 852 270 819.50Q256 787 256 750L256 713L133 733L133 743Q133 805 156.50 860Q180 915 221 956Q262 997 317 1020.50Q372 1044 434 1044L506 1044Q568 1044 623 1020.50Q678 997 719 956Q760 915 783.50 860Q807 805 807 743L807 0L766 0M684 496L424 496Q387 496 354.50 482Q322 468 298 443.50Q274 419 260 386.50Q246 354 246 317L246 274Q246 237 260 204.50Q274 172 298 148Q322 124 354.50 110Q387 96 424 96L506 96Q543 96 575.50 110Q608 124 632 148Q656 172 670 204.50Q684 237 684 274L684 496M215 1231L215 1384L369 1384L369 1231L215 1231M602 1231L602 1384L756 1384L756 1231L602 1231Z"  horiz-adv-x="930" vert-adv-y="2048"  />

      
      <glyph glyph-name="unie5" unicode="&#xe5;" d="M766 0L698 102Q656 47 593 13.50Q530-20 455-20L424-20Q362-20 307 3.50Q252 27 211 68Q170 109 146.50 164Q123 219 123 281L123 291Q123 353 146.50 408Q170 463 211 504Q252 545 307 568.50Q362 592 424 592L684 592L684 750Q684 787 670 819.50Q656 852 632 876Q608 900 575.50 914Q543 928 506 928L434 928Q397 928 364.50 914Q332 900 308 876Q284 852 270 819.50Q256 787 256 750L256 713L133 733L133 743Q133 805 156.50 860Q180 915 221 956Q262 997 317 1020.50Q372 1044 434 1044L506 1044Q568 1044 623 1020.50Q678 997 719 956Q760 915 783.50 860Q807 805 807 743L807 0L766 0M684 496L424 496Q387 496 354.50 482Q322 468 298 443.50Q274 419 260 386.50Q246 354 246 317L246 274Q246 237 260 204.50Q274 172 298 148Q322 124 354.50 110Q387 96 424 96L506 96Q543 96 575.50 110Q608 124 632 148Q656 172 670 204.50Q684 237 684 274L684 496M258 1358Q258 1402 274.50 1440.50Q291 1479 319.50 1508Q348 1537 386.50 1554Q425 1571 469 1571Q513 1571 551.50 1554Q590 1537 619 1508Q648 1479 665 1440.50Q682 1402 682 1358Q682 1314 665 1275.50Q648 1237 619 1208.50Q590 1180 551.50 1163.50Q513 1147 469 1147Q425 1147 386.50 1163.50Q348 1180 319.50 1208.50Q291 1237 274.50 1275.50Q258 1314 258 1358M360 1358Q360 1336 368.50 1315.50Q377 1295 392 1280Q407 1265 427 1256Q447 1247 469 1247Q492 1247 512 1256Q532 1265 547 1280Q562 1295 571 1315.50Q580 1336 580 1358Q580 1381 571 1401.50Q562 1422 547 1437Q532 1452 512 1461Q492 1470 469 1470Q447 1470 427 1461Q407 1452 392 1437Q377 1422 368.50 1401.50Q360 1381 360 1358Z"  horiz-adv-x="930" vert-adv-y="2048"  />

      
      <glyph glyph-name="unie6" unicode="&#xe6;" d="M1368 281Q1368 219 1344.50 164Q1321 109 1280 68Q1239 27 1184 3.50Q1129-20 1067-20L985-20Q943-20 903.50-9Q864 2 830 22Q796 42 768 70.50Q740 99 721 133Q693 88 661.50 58.50Q630 29 595.50 11.50Q561-6 525.50-13Q490-20 455-20L424-20Q362-20 307 3.50Q252 27 211 68Q170 109 146.50 164Q123 219 123 281L123 291Q123 353 146.50 408Q170 463 211 504Q252 545 307 568.50Q362 592 424 592L684 592L684 756Q683 791 668.50 822.50Q654 854 630 877.50Q606 901 574 914.50Q542 928 506 928L434 928Q397 928 364.50 914Q332 900 308 876Q284 852 270 819.50Q256 787 256 750L256 713L133 733L133 743Q133 805 156.50 860Q180 915 221 956Q262 997 317 1020.50Q372 1044 434 1044L506 1044Q578 1044 640.50 1011.50Q703 979 745 924Q787 979 849 1011.50Q911 1044 985 1044L1067 1044Q1129 1044 1184 1020.50Q1239 997 1280 956Q1321 915 1344.50 860Q1368 805 1368 743L1368 502L807 502L807 274Q807 237 821 204.50Q835 172 859 148Q883 124 915.50 110Q948 96 985 96L1067 96Q1104 96 1136.50 110Q1169 124 1193 148Q1217 172 1231 204.50Q1245 237 1245 274L1245 342L1368 322L1368 281L1368 281M684 496L424 496Q387 496 354.50 482Q322 468 298 443.50Q274 419 260 386.50Q246 354 246 317L246 274Q246 237 260 204.50Q274 172 298 148Q322 124 354.50 110Q387 96 424 96L506 96Q543 96 575.50 110Q608 124 632 148Q656 172 670 204.50Q684 237 684 274L684 496M1245 750Q1245 787 1231 819.50Q1217 852 1193 876Q1169 900 1136.50 914Q1104 928 1067 928L985 928Q949 928 917 914.50Q885 901 861 877.50Q837 854 822.50 822.50Q808 791 807 756L807 598L1245 598L1245 750Z"  horiz-adv-x="1491" vert-adv-y="2048"  />

      
      <glyph glyph-name="unie7" unicode="&#xe7;" d="M436-20L424-20Q362-20 307 3.50Q252 27 211 68Q170 109 146.50 164Q123 219 123 281L123 743Q123 805 146.50 860Q170 915 211 956Q252 997 307 1020.50Q362 1044 424 1044L506 1044Q568 1044 623 1020.50Q678 997 719 956Q760 915 783.50 860Q807 805 807 743L807 702L684 682L684 750Q684 787 670 819.50Q656 852 632 876Q608 900 575.50 914Q543 928 506 928L424 928Q387 928 354.50 914Q322 900 298 876Q274 852 260 819.50Q246 787 246 750L246 274Q246 237 260 204.50Q274 172 298 148Q322 124 354.50 110Q387 96 424 96L506 96Q543 96 575.50 110Q608 124 632 148Q656 172 670 204.50Q684 237 684 274L684 342L807 322L807 281Q807 221 784.50 168Q762 115 723.50 74.50Q685 34 633 9Q581-16 522-20L475-102Q484-106 500-116.50Q516-127 531.50-145Q547-163 558-188Q569-213 569-246Q569-284 555.50-315Q542-346 517.50-367.50Q493-389 459-400.50Q425-412 385-412Q340-412 303.50-394.50Q267-377 238-348L285-276Q290-282 299-290Q308-298 321.50-305Q335-312 351.50-317Q368-322 387-322Q424-322 449.50-301Q475-280 475-242Q475-218 465.50-200Q456-182 439.50-170Q423-158 401.50-153Q380-148 356-150L436-20Z"  horiz-adv-x="930" vert-adv-y="2048"  />

      
      <glyph glyph-name="unie8" unicode="&#xe8;" d="M807 281Q807 219 783.50 164Q760 109 719 68Q678 27 623 3.50Q568-20 506-20L424-20Q362-20 307 3.50Q252 27 211 68Q170 109 146.50 164Q123 219 123 281L123 743Q123 805 146.50 860Q170 915 211 956Q252 997 307 1020.50Q362 1044 424 1044L506 1044Q568 1044 623 1020.50Q678 997 719 956Q760 915 783.50 860Q807 805 807 743L807 502L246 502L246 274Q246 237 260 204.50Q274 172 298 148Q322 124 354.50 110Q387 96 424 96L506 96Q543 96 575.50 110Q608 124 632 148Q656 172 670 204.50Q684 237 684 274L684 342L807 322L807 281L807 281M684 750Q684 787 670 819.50Q656 852 632 876Q608 900 575.50 914Q543 928 506 928L424 928Q387 928 354.50 914Q322 900 298 876Q274 852 260 819.50Q246 787 246 750L246 598L684 598L684 750M240 1434L444 1434L608 1188L516 1188L240 1434Z"  horiz-adv-x="930" vert-adv-y="2048"  />

      
      <glyph glyph-name="unie9" unicode="&#xe9;" d="M807 281Q807 219 783.50 164Q760 109 719 68Q678 27 623 3.50Q568-20 506-20L424-20Q362-20 307 3.50Q252 27 211 68Q170 109 146.50 164Q123 219 123 281L123 743Q123 805 146.50 860Q170 915 211 956Q252 997 307 1020.50Q362 1044 424 1044L506 1044Q568 1044 623 1020.50Q678 997 719 956Q760 915 783.50 860Q807 805 807 743L807 502L246 502L246 274Q246 237 260 204.50Q274 172 298 148Q322 124 354.50 110Q387 96 424 96L506 96Q543 96 575.50 110Q608 124 632 148Q656 172 670 204.50Q684 237 684 274L684 342L807 322L807 281L807 281M684 750Q684 787 670 819.50Q656 852 632 876Q608 900 575.50 914Q543 928 506 928L424 928Q387 928 354.50 914Q322 900 298 876Q274 852 260 819.50Q246 787 246 750L246 598L684 598L684 750M414 1188L322 1188L485 1434L690 1434L414 1188Z"  horiz-adv-x="930" vert-adv-y="2048"  />

      
      <glyph glyph-name="uniea" unicode="&#xea;" d="M807 281Q807 219 783.50 164Q760 109 719 68Q678 27 623 3.50Q568-20 506-20L424-20Q362-20 307 3.50Q252 27 211 68Q170 109 146.50 164Q123 219 123 281L123 743Q123 805 146.50 860Q170 915 211 956Q252 997 307 1020.50Q362 1044 424 1044L506 1044Q568 1044 623 1020.50Q678 997 719 956Q760 915 783.50 860Q807 805 807 743L807 502L246 502L246 274Q246 237 260 204.50Q274 172 298 148Q322 124 354.50 110Q387 96 424 96L506 96Q543 96 575.50 110Q608 124 632 148Q656 172 670 204.50Q684 237 684 274L684 342L807 322L807 281L807 281M684 750Q684 787 670 819.50Q656 852 632 876Q608 900 575.50 914Q543 928 506 928L424 928Q387 928 354.50 914Q322 900 298 876Q274 852 260 819.50Q246 787 246 750L246 598L684 598L684 750M752 1188L629 1188L485 1352L342 1188L219 1188L424 1434L547 1434L752 1188Z"  horiz-adv-x="930" vert-adv-y="2048"  />

      
      <glyph glyph-name="unieb" unicode="&#xeb;" d="M807 281Q807 219 783.50 164Q760 109 719 68Q678 27 623 3.50Q568-20 506-20L424-20Q362-20 307 3.50Q252 27 211 68Q170 109 146.50 164Q123 219 123 281L123 743Q123 805 146.50 860Q170 915 211 956Q252 997 307 1020.50Q362 1044 424 1044L506 1044Q568 1044 623 1020.50Q678 997 719 956Q760 915 783.50 860Q807 805 807 743L807 502L246 502L246 274Q246 237 260 204.50Q274 172 298 148Q322 124 354.50 110Q387 96 424 96L506 96Q543 96 575.50 110Q608 124 632 148Q656 172 670 204.50Q684 237 684 274L684 342L807 322L807 281L807 281M684 750Q684 787 670 819.50Q656 852 632 876Q608 900 575.50 914Q543 928 506 928L424 928Q387 928 354.50 914Q322 900 298 876Q274 852 260 819.50Q246 787 246 750L246 598L684 598L684 750M215 1231L215 1384L369 1384L369 1231L215 1231M602 1231L602 1384L756 1384L756 1231L602 1231Z"  horiz-adv-x="930" vert-adv-y="2048"  />

      
      <glyph glyph-name="uniec" unicode="&#xec;" d="M164 0L164 1024L287 1024L287 0L164 0M0 1434L205 1434L369 1188L276 1188L0 1434Z"  horiz-adv-x="451" vert-adv-y="2048"  />

      
      <glyph glyph-name="unied" unicode="&#xed;" d="M164 0L164 1024L287 1024L287 0L164 0M174 1188L82 1188L246 1434L451 1434L174 1188Z"  horiz-adv-x="451" vert-adv-y="2048"  />

      
      <glyph glyph-name="uniee" unicode="&#xee;" d="M164 0L164 1024L287 1024L287 0L164 0M492 1188L369 1188L225 1352L82 1188L-41 1188L164 1434L287 1434L492 1188Z"  horiz-adv-x="451" vert-adv-y="2048"  />

      
      <glyph glyph-name="unief" unicode="&#xef;" d="M164 0L164 1024L287 1024L287 0L164 0M-45 1231L-45 1384L109 1384L109 1231L-45 1231M342 1231L342 1384L496 1384L496 1231L342 1231Z"  horiz-adv-x="451" vert-adv-y="2048"  />

      
      <glyph glyph-name="unif0" unicode="&#xf0;" d="M498 1264Q456 1313 407.50 1355.50Q359 1398 309 1434L457 1434Q536 1382 608 1296L827 1360L848 1294L651 1237Q720 1137 763.50 1011.50Q807 886 807 743L807 281Q807 219 783.50 164Q760 109 719 68Q678 27 623 3.50Q568-20 506-20L424-20Q362-20 307 3.50Q252 27 211 68Q170 109 146.50 164Q123 219 123 281L123 743Q123 805 146.50 860Q170 915 211 956Q252 997 307 1020.50Q362 1044 424 1044L506 1044Q572 1044 633 1016Q604 1118 543 1206L315 1141L297 1206L498 1264M684 750Q684 787 670 819.50Q656 852 632 876Q608 900 575.50 914Q543 928 506 928L424 928Q387 928 354.50 914Q322 900 298 876Q274 852 260 819.50Q246 787 246 750L246 274Q246 237 260 204.50Q274 172 298 148Q322 124 354.50 110Q387 96 424 96L506 96Q543 96 575.50 110Q608 124 632 148Q656 172 670 204.50Q684 237 684 274L684 750Z"  horiz-adv-x="930" vert-adv-y="2048"  />

      
      <glyph glyph-name="unif1" unicode="&#xf1;" d="M684 0L684 750Q684 787 670 819.50Q656 852 632 876Q608 900 575.50 914Q543 928 506 928L424 928Q387 928 354.50 914Q322 900 298 876Q274 852 260 819.50Q246 787 246 750L246 0L123 0L123 1024L164 1024L231 920Q273 977 336.50 1010.50Q400 1044 475 1044L506 1044Q568 1044 623 1020.50Q678 997 719 956Q760 915 783.50 860Q807 805 807 743L807 0L684 0M602 1319Q644 1319 666 1351Q688 1383 688 1434L782 1434Q782 1389 770.50 1350Q759 1311 736.50 1282Q714 1253 679.50 1236Q645 1219 600 1219Q552 1219 515.50 1237Q479 1255 447.50 1276Q416 1297 387.50 1315Q359 1333 328 1333Q286 1333 265 1301.50Q244 1270 244 1221L150 1221Q150 1265 161 1304Q172 1343 194.50 1372Q217 1401 251.50 1417.50Q286 1434 332 1434Q377 1434 411.50 1416Q446 1398 476.50 1376.50Q507 1355 537 1337Q567 1319 602 1319Z"  horiz-adv-x="930" vert-adv-y="2048"  />

      
      <glyph glyph-name="unif2" unicode="&#xf2;" d="M807 281Q807 219 783.50 164Q760 109 719 68Q678 27 623 3.50Q568-20 506-20L424-20Q362-20 307 3.50Q252 27 211 68Q170 109 146.50 164Q123 219 123 281L123 743Q123 805 146.50 860Q170 915 211 956Q252 997 307 1020.50Q362 1044 424 1044L506 1044Q568 1044 623 1020.50Q678 997 719 956Q760 915 783.50 860Q807 805 807 743L807 281L807 281M684 750Q684 787 670 819.50Q656 852 632 876Q608 900 575.50 914Q543 928 506 928L424 928Q387 928 354.50 914Q322 900 298 876Q274 852 260 819.50Q246 787 246 750L246 274Q246 237 260 204.50Q274 172 298 148Q322 124 354.50 110Q387 96 424 96L506 96Q543 96 575.50 110Q608 124 632 148Q656 172 670 204.50Q684 237 684 274L684 750M240 1434L444 1434L608 1188L516 1188L240 1434Z"  horiz-adv-x="930" vert-adv-y="2048"  />

      
      <glyph glyph-name="unif3" unicode="&#xf3;" d="M807 281Q807 219 783.50 164Q760 109 719 68Q678 27 623 3.50Q568-20 506-20L424-20Q362-20 307 3.50Q252 27 211 68Q170 109 146.50 164Q123 219 123 281L123 743Q123 805 146.50 860Q170 915 211 956Q252 997 307 1020.50Q362 1044 424 1044L506 1044Q568 1044 623 1020.50Q678 997 719 956Q760 915 783.50 860Q807 805 807 743L807 281L807 281M684 750Q684 787 670 819.50Q656 852 632 876Q608 900 575.50 914Q543 928 506 928L424 928Q387 928 354.50 914Q322 900 298 876Q274 852 260 819.50Q246 787 246 750L246 274Q246 237 260 204.50Q274 172 298 148Q322 124 354.50 110Q387 96 424 96L506 96Q543 96 575.50 110Q608 124 632 148Q656 172 670 204.50Q684 237 684 274L684 750M414 1188L322 1188L485 1434L690 1434L414 1188Z"  horiz-adv-x="930" vert-adv-y="2048"  />

      
      <glyph glyph-name="unif4" unicode="&#xf4;" d="M807 281Q807 219 783.50 164Q760 109 719 68Q678 27 623 3.50Q568-20 506-20L424-20Q362-20 307 3.50Q252 27 211 68Q170 109 146.50 164Q123 219 123 281L123 743Q123 805 146.50 860Q170 915 211 956Q252 997 307 1020.50Q362 1044 424 1044L506 1044Q568 1044 623 1020.50Q678 997 719 956Q760 915 783.50 860Q807 805 807 743L807 281L807 281M684 750Q684 787 670 819.50Q656 852 632 876Q608 900 575.50 914Q543 928 506 928L424 928Q387 928 354.50 914Q322 900 298 876Q274 852 260 819.50Q246 787 246 750L246 274Q246 237 260 204.50Q274 172 298 148Q322 124 354.50 110Q387 96 424 96L506 96Q543 96 575.50 110Q608 124 632 148Q656 172 670 204.50Q684 237 684 274L684 750M731 1188L608 1188L465 1352L322 1188L199 1188L403 1434L526 1434L731 1188Z"  horiz-adv-x="930" vert-adv-y="2048"  />

      
      <glyph glyph-name="unif5" unicode="&#xf5;" d="M807 281Q807 219 783.50 164Q760 109 719 68Q678 27 623 3.50Q568-20 506-20L424-20Q362-20 307 3.50Q252 27 211 68Q170 109 146.50 164Q123 219 123 281L123 743Q123 805 146.50 860Q170 915 211 956Q252 997 307 1020.50Q362 1044 424 1044L506 1044Q568 1044 623 1020.50Q678 997 719 956Q760 915 783.50 860Q807 805 807 743L807 281L807 281M684 750Q684 787 670 819.50Q656 852 632 876Q608 900 575.50 914Q543 928 506 928L424 928Q387 928 354.50 914Q322 900 298 876Q274 852 260 819.50Q246 787 246 750L246 274Q246 237 260 204.50Q274 172 298 148Q322 124 354.50 110Q387 96 424 96L506 96Q543 96 575.50 110Q608 124 632 148Q656 172 670 204.50Q684 237 684 274L684 750M602 1319Q644 1319 666 1351Q688 1383 688 1434L782 1434Q782 1389 770.50 1350Q759 1311 736.50 1282Q714 1253 679.50 1236Q645 1219 600 1219Q552 1219 515.50 1237Q479 1255 447.50 1276Q416 1297 387.50 1315Q359 1333 328 1333Q286 1333 265 1301.50Q244 1270 244 1221L150 1221Q150 1265 161 1304Q172 1343 194.50 1372Q217 1401 251.50 1417.50Q286 1434 332 1434Q377 1434 411.50 1416Q446 1398 476.50 1376.50Q507 1355 537 1337Q567 1319 602 1319Z"  horiz-adv-x="930" vert-adv-y="2048"  />

      
      </font>
</defs>
</svg>
