<?xml version="1.0" standalone="no"?><!DOCTYPE svg PUBLIC "-//W3C//DTD SVG 1.1//EN" "http://www.w3.org/Graphics/SVG/1.1/DTD/svg11.dtd" ><svg xmlns="http://www.w3.org/2000/svg"><metadata></metadata><defs><font id="MatthewDesmond: Abel: 2011" horiz-adv-x="2046"><font-face font-family="Abel" font-weight="400" font-stretch="normal" units-per-em="2048" panose-1="2 0 5 6 3 0 0 2 0 4" ascent="2006" descent="-604" x-height="4" bbox="-14 -430 1903 1454" underline-thickness="82" underline-position="-369" unicode-range="U+002c-201d" /><missing-glyph horiz-adv-x="2048"  /><glyph glyph-name="comma" unicode="," d="M195 -287 l-52 0 l0 441 l154 0 l-102 -441 Z" /><glyph glyph-name="hyphen" unicode="-" d="M102 627 l0 116 l383 0 l0 -116 l-383 0 Z" /><glyph glyph-name="period" unicode="." d="M143 0 l0 154 l154 0 l0 -154 l-154 0 Z" /><glyph glyph-name="zero" unicode="0" d="M909 332 q0 -73 -27.5 -137 q-27.5 -64 -75.5 -112 q-48 -48 -112 -75.5 q-64 -27.5 -137 -27.5 l-61 0 q-73 0 -137.5 27.5 q-64.5 27.5 -112.5 75.5 q-48 48 -75.5 112 q-27.5 64 -27.5 137 l0 770 q0 73 27.5 137 q27.5 64 75.5 112 q48 48 112.5 75.5 q64.5 27.5 137.5 27.5 l61 0 q73 0 137 -27.5 q64 -27.5 112 -75.5 q48 -48 75.5 -112 q27.5 -64 27.5 -137 l0 -770 l0 0 ZM780 1102 q0 48 -18 89.5 q-18 41.5 -49 72.5 q-31 31 -72.5 49 q-41.5 18 -89.5 18 l-49 0 q-48 0 -89.5 -18 q-41.5 -18 -73 -49 q-31.5 -31 -49.5 -72.5 q-18 -41.5 -18 -89.5 l0 -770 q0 -48 18 -89.5 q18 -41.5 49.5 -73 q31.5 -31.5 73 -49.5 q41.5 -18 89.5 -18 l49 0 q48 0 89.5 18 q41.5 18 72.5 49.5 q31 31.5 49 73 q18 41.5 18 89.5 l0 770 Z" /><glyph glyph-name="one" unicode="1" d="M164 0 l0 123 l342 0 l0 1188 l-342 -144 l0 123 l342 144 l129 0 l0 -1311 l342 0 l0 -123 l-813 0 Z" /><glyph glyph-name="two" unicode="2" d="M471 1331 q-48 0 -89.5 -18 q-41.5 -18 -72.5 -49 q-31 -31 -49 -72.5 q-18 -41.5 -18 -89.5 l0 -58 l-129 21 l0 37 q0 73 27.5 137 q27.5 64 75.5 112 q48 48 112 75.5 q64 27.5 137 27.5 l61 0 q73 0 137.5 -26 q64.5 -26 112.5 -75 q48 -49 75.5 -117.5 q27.5 -68.5 27.5 -154.5 q0 -85 -25.5 -171 q-25.5 -86 -67 -169 q-41.5 -83 -95 -161 q-53.5 -78 -109.5 -147 q-131 -161 -297 -310 l604 0 l0 -123 l-807 0 l0 102 q187 154 334 319 q63 71 123 151 q60 80 107 164.5 q47 84.5 75.5 172 q28.5 87.5 28.5 172.5 q0 63 -19 110 q-19 47 -51 78 q-32 31 -73.5 46.5 q-41.5 15.5 -86.5 15.5 l-49 0 Z" /><glyph glyph-name="eight" unicode="8" d="M909 332 q0 -73 -27.5 -137 q-27.5 -64 -75.5 -112 q-48 -48 -112 -75.5 q-64 -27.5 -137 -27.5 l-61 0 q-73 0 -137.5 27.5 q-64.5 27.5 -112.5 75.5 q-48 48 -75.5 112 q-27.5 64 -27.5 137 l0 119 q0 91 42.5 166.5 q42.5 75.5 111.5 123.5 q-69 48 -111.5 124 q-42.5 76 -42.5 167 l0 70 q0 73 27.5 137 q27.5 64 75.5 112 q48 48 112.5 75.5 q64.5 27.5 137.5 27.5 l61 0 q73 0 137 -27.5 q64 -27.5 112 -75.5 q48 -48 75.5 -112 q27.5 -64 27.5 -137 l0 -70 q0 -91 -42 -167 q-42 -76 -111 -124 q69 -48 111 -123.5 q42 -75.5 42 -166.5 l0 -119 l0 0 ZM780 1102 q0 48 -18 89.5 q-18 41.5 -49 72.5 q-31 31 -72.5 49 q-41.5 18 -89.5 18 l-49 0 q-48 0 -89.5 -18 q-41.5 -18 -73 -49 q-31.5 -31 -49.5 -72.5 q-18 -41.5 -18 -89.5 l0 -70 q0 -48 18 -89.5 q18 -41.5 49.5 -72.5 q31.5 -31 73 -49 q41.5 -18 89.5 -18 l49 0 q48 0 89.5 18 q41.5 18 72.5 49 q31 31 49 72.5 q18 41.5 18 89.5 l0 70 ZM780 451 q0 48 -18 89.5 q-18 41.5 -49 72.5 q-31 31 -72.5 49 q-41.5 18 -89.5 18 l-49 0 q-48 0 -89.5 -18 q-41.5 -18 -73 -49 q-31.5 -31 -49.5 -72.5 q-18 -41.5 -18 -89.5 l0 -119 q0 -48 18 -89.5 q18 -41.5 49.5 -73 q31.5 -31.5 73 -49.5 q41.5 -18 89.5 -18 l49 0 q48 0 89.5 18 q41.5 18 72.5 49.5 q31 31.5 49 73 q18 41.5 18 89.5 l0 119 Z" /><glyph glyph-name="nine" unicode="9" d="M930 332 q0 -73 -27.5 -137 q-27.5 -64 -75.5 -112 q-48 -48 -112 -75.5 q-64 -27.5 -137 -27.5 l-62 0 q-73 0 -137 27.5 q-64 27.5 -112 75.5 q-48 48 -75.5 112 q-27.5 64 -27.5 137 l0 37 l129 20 l0 -57 q0 -48 18 -89.5 q18 -41.5 49 -73 q31 -31.5 72.5 -49.5 q41.5 -18 89.5 -18 l49 0 q48 0 89.5 18 q41.5 18 73 49.5 q31.5 31.5 49.5 73 q18 41.5 18 89.5 l0 356 q-50 -54 -118 -86.5 q-68 -32.5 -146 -32.5 l-21 0 q-73 0 -137 27.5 q-64 27.5 -112 75.5 q-48 48 -75.5 112.5 q-27.5 64.5 -27.5 137.5 l0 180 q0 73 27.5 137 q27.5 64 75.5 112 q48 48 112 75.5 q64 27.5 137 27.5 l62 0 q73 0 137 -27.5 q64 -27.5 112 -75.5 q48 -48 75.5 -112 q27.5 -64 27.5 -137 l0 -770 l0 0 ZM801 1102 q0 48 -18 89.5 q-18 41.5 -49.5 72.5 q-31.5 31 -73 49 q-41.5 18 -89.5 18 l-49 0 q-48 0 -89.5 -18 q-41.5 -18 -72.5 -49 q-31 -31 -49 -72.5 q-18 -41.5 -18 -89.5 l0 -180 q0 -48 18 -89.5 q18 -41.5 49 -73 q31 -31.5 72.5 -49.5 q41.5 -18 89.5 -18 l49 0 q48 0 89.5 18 q41.5 18 73 49.5 q31.5 31.5 49.5 73 q18 41.5 18 89.5 l0 180 Z" /><glyph glyph-name="at" unicode="@" d="M1305 254 q-14 -100 25.5 -147.5 q39.5 -47.5 123.5 -47.5 q61 0 119 44 q58 44 103 122.5 q45 78.5 72.5 187 q27.5 108.5 27.5 236.5 q0 147 -43.5 273 q-43.5 126 -126 217.5 q-82.5 91.5 -203 143.5 q-120.5 52 -275.5 52 q-123 0 -234 -35 q-111 -35 -206.5 -98 q-95.5 -63 -172.5 -150.5 q-77 -87.5 -131.5 -193.5 q-54.5 -106 -84 -226 q-29.5 -120 -29.5 -249 q0 -147 40 -274 q40 -127 119 -220.5 q79 -93.5 195.5 -146.5 q116.5 -53 270.5 -53 q56 0 109.5 7.5 q53.5 7.5 101.5 19.5 q48 12 88.5 28 q40.5 16 69.5 33 l41 -94 q-48 -29 -102 -50.5 q-54 -21.5 -109.5 -35.5 q-55.5 -14 -110 -20.5 q-54.5 -6.5 -104.5 -6.5 q-177 0 -314 61 q-137 61 -230.5 168 q-93.5 107 -142.5 252.5 q-49 145.5 -49 315.5 q0 146 35 283.5 q35 137.5 99.5 258.5 q64.5 121 155.5 221 q91 100 202 172 q111 72 240 112 q129 40 270 40 q177 0 317.5 -60 q140.5 -60 238.5 -165.5 q98 -105.5 150 -249.5 q52 -144 52 -313 q0 -81 -13 -165.5 q-13 -84.5 -39 -164.5 q-26 -80 -65 -150 q-39 -70 -91.5 -123 q-52.5 -53 -118.5 -83.5 q-66 -30.5 -146 -30.5 q-55 0 -96 12 q-41 12 -71.5 32.5 q-30.5 20.5 -52 49 q-21.5 28.5 -36.5 61.5 q-51 -57 -119 -90.5 q-68 -33.5 -144 -33.5 l-30 0 q-57 0 -104.5 20 q-47.5 20 -82 54.5 q-34.5 34.5 -54 81.5 q-19.5 47 -19.5 102 q0 11 0 21.5 q0 10.5 2 21.5 l63 462 q9 62 40.5 117 q31.5 55 78.5 96 q47 41 105.5 64.5 q58.5 23.5 119.5 23.5 l31 0 q75 0 134 -33.5 q59 -33.5 91 -90.5 l84 104 l41 0 l-106 -770 ZM743 274 q0 -6 -1 -12 q-1 -6 -1 -12 q0 -33 11.5 -61 q11.5 -28 32.5 -49 q21 -21 49.5 -32.5 q28.5 -11.5 62.5 -11.5 l82 0 q37 0 71 14 q34 14 61.5 38 q27.5 24 46 56.5 q18.5 32.5 24.5 69.5 l67 476 q2 6 2 13 q0 7 0 13 q0 32 -11.5 60 q-11.5 28 -32 48.5 q-20.5 20.5 -49 32 q-28.5 11.5 -62.5 11.5 l-82 0 q-37 0 -71.5 -14 q-34.5 -14 -62 -38 q-27.5 -24 -46 -56.5 q-18.5 -32.5 -23.5 -69.5 l-68 -476 Z" /><glyph glyph-name="A" unicode="a" d="M702 334 l-454 0 l-94 -334 l-134 0 l420 1434 l68 0 l422 -1434 l-133 0 l-95 334 ZM283 457 l385 0 l-189 661 l-4 53 l-4 -53 l-188 -661 Z" /><glyph glyph-name="C" unicode="c" d="M950 332 q0 -73 -27.5 -137 q-27.5 -64 -75.5 -112 q-48 -48 -112 -75.5 q-64 -27.5 -137 -27.5 l-102 0 q-73 0 -137.5 27.5 q-64.5 27.5 -112.5 75.5 q-48 48 -75.5 112 q-27.5 64 -27.5 137 l0 770 q0 73 27.5 137 q27.5 64 75.5 112 q48 48 112.5 75.5 q64.5 27.5 137.5 27.5 l102 0 q73 0 137 -27.5 q64 -27.5 112 -75.5 q48 -48 75.5 -112 q27.5 -64 27.5 -137 l0 -58 l-129 -20 l0 78 q0 48 -18 89.5 q-18 41.5 -49 72.5 q-31 31 -72.5 49 q-41.5 18 -89.5 18 l-90 0 q-48 0 -89.5 -18 q-41.5 -18 -73 -49 q-31.5 -31 -49.5 -72.5 q-18 -41.5 -18 -89.5 l0 -770 q0 -48 18 -89.5 q18 -41.5 49.5 -73 q31.5 -31.5 73 -49.5 q41.5 -18 89.5 -18 l90 0 q48 0 89.5 18 q41.5 18 72.5 49.5 q31 31.5 49 73 q18 41.5 18 89.5 l0 78 l129 -21 l0 -57 l0 0 Z" /><glyph glyph-name="D" unicode="d" d="M971 352 q0 -73 -27.5 -137 q-27.5 -64 -75.5 -112 q-48 -48 -112.5 -75.5 q-64.5 -27.5 -137.5 -27.5 l-454 0 l0 1434 l454 0 q73 0 137.5 -27.5 q64.5 -27.5 112.5 -75.5 q48 -48 75.5 -112.5 q27.5 -64.5 27.5 -137.5 l0 -729 l0 0 ZM842 1081 q0 48 -18 89.5 q-18 41.5 -49.5 73 q-31.5 31.5 -73 49.5 q-41.5 18 -89.5 18 l-319 0 l0 -1188 l319 0 q48 0 89.5 18 q41.5 18 73 49 q31.5 31 49.5 72.5 q18 41.5 18 89.5 l0 729 Z" /><glyph glyph-name="E" unicode="e" d="M164 0 l0 1434 l807 0 l0 -123 l-678 0 l0 -533 l549 0 l0 -123 l-549 0 l0 -532 l678 0 l0 -123 l-807 0 Z" /><glyph glyph-name="F" unicode="f" d="M293 1311 l0 -533 l549 0 l0 -123 l-549 0 l0 -655 l-129 0 l0 1434 l807 0 l0 -123 l-678 0 Z" /><glyph glyph-name="G" unicode="g" d="M950 0 l-41 0 l-75 115 q-47 -62 -114 -98.5 q-67 -36.5 -149 -36.5 l-75 0 q-73 0 -137.5 27.5 q-64.5 27.5 -112.5 75.5 q-48 48 -75.5 112 q-27.5 64 -27.5 137 l0 770 q0 73 27.5 137 q27.5 64 75.5 112 q48 48 112.5 75.5 q64.5 27.5 137.5 27.5 l102 0 q73 0 137 -27.5 q64 -27.5 112 -75.5 q48 -48 75.5 -112 q27.5 -64 27.5 -137 l0 -58 l-129 -20 l0 78 q0 48 -18 89.5 q-18 41.5 -49 72.5 q-31 31 -72.5 49 q-41.5 18 -89.5 18 l-90 0 q-48 0 -89.5 -18 q-41.5 -18 -73 -49 q-31.5 -31 -49.5 -72.5 q-18 -41.5 -18 -89.5 l0 -770 q0 -48 18 -89.5 q18 -41.5 49.5 -73 q31.5 -31.5 73 -49.5 q41.5 -18 89.5 -18 l90 0 q48 0 89.5 18 q41.5 18 72.5 49.5 q31 31.5 49 73 q18 41.5 18 89.5 l0 299 l-229 0 l0 123 l358 0 l0 -754 Z" /><glyph glyph-name="I" unicode="i" d="M164 0 l0 1434 l129 0 l0 -1434 l-129 0 Z" /><glyph glyph-name="K" unicode="k" d="M864 0 l-540 717 l540 717 l160 0 l-551 -717 l551 -717 l-160 0 ZM164 0 l0 1434 l129 0 l0 -1434 l-129 0 Z" /><glyph glyph-name="L" unicode="l" d="M143 0 l0 1434 l129 0 l0 -1311 l549 0 l0 -123 l-678 0 Z" /><glyph glyph-name="M" unicode="m" d="M1047 0 l0 983 l-9 -61 l-333 -922 l-68 0 l-336 922 l-8 61 l0 -983 l-129 0 l0 1434 l67 0 l435 -1176 l4 -53 l4 53 l434 1176 l68 0 l0 -1434 l-129 0 Z" /><glyph glyph-name="N" unicode="n" d="M903 0 l-598 1044 l-12 62 l0 -1106 l-129 0 l0 1434 l67 0 l598 -1045 l13 -61 l0 1106 l129 0 l0 -1434 l-68 0 Z" /><glyph glyph-name="P" unicode="p" d="M971 903 q0 -73 -27.5 -137 q-27.5 -64 -75.5 -112 q-48 -48 -112.5 -75.5 q-64.5 -27.5 -137.5 -27.5 l-325 0 l0 -551 l-129 0 l0 1434 l454 0 q73 0 137.5 -27.5 q64.5 -27.5 112.5 -75.5 q48 -48 75.5 -112.5 q27.5 -64.5 27.5 -137.5 l0 -178 l0 0 ZM842 1081 q0 48 -18 89.5 q-18 41.5 -49.5 73 q-31.5 31.5 -73 49.5 q-41.5 18 -89.5 18 l-319 0 l0 -637 l319 0 q48 0 89.5 18 q41.5 18 73 49 q31.5 31 49.5 72.5 q18 41.5 18 89.5 l0 178 Z" /><glyph glyph-name="R" unicode="r" d="M838 0 l-389 612 l-177 0 l0 -612 l-129 0 l0 1434 l455 0 q73 0 137 -27.5 q64 -27.5 112 -75.5 q48 -48 75.5 -112.5 q27.5 -64.5 27.5 -137.5 l0 -116 q0 -73 -27.5 -137.5 q-27.5 -64.5 -75.5 -112.5 q-48 -48 -112 -75.5 q-64 -27.5 -137 -27.5 l389 -612 l-149 0 ZM821 1081 q0 48 -18 89.5 q-18 41.5 -49 73 q-31 31.5 -72.5 49.5 q-41.5 18 -89.5 18 l-320 0 l0 -576 l320 0 q48 0 89.5 18 q41.5 18 72.5 49.5 q31 31.5 49 73 q18 41.5 18 89.5 l0 116 Z" /><glyph glyph-name="T" unicode="t" d="M512 1311 l0 -1311 l-129 0 l0 1311 l-342 0 l0 123 l813 0 l0 -123 l-342 0 Z" /><glyph glyph-name="U" unicode="u" d="M950 332 q0 -73 -27.5 -137 q-27.5 -64 -75.5 -112 q-48 -48 -112 -75.5 q-64 -27.5 -137 -27.5 l-102 0 q-73 0 -137.5 27.5 q-64.5 27.5 -112.5 75.5 q-48 48 -75.5 112 q-27.5 64 -27.5 137 l0 1102 l129 0 l0 -1102 q0 -48 18 -89.5 q18 -41.5 49.5 -73 q31.5 -31.5 73 -49.5 q41.5 -18 89.5 -18 l90 0 q48 0 89.5 18 q41.5 18 72.5 49.5 q31 31.5 49 73 q18 41.5 18 89.5 l0 1102 l129 0 l0 -1102 l0 0 Z" /><glyph glyph-name="V" unicode="v" d="M471 315 l4 -53 l4 53 l318 1119 l133 0 l-422 -1434 l-68 0 l-420 1434 l134 0 l317 -1119 Z" /><glyph glyph-name="W" unicode="w" d="M1122 0 l-67 0 l-279 1079 l-4 56 l-6 -56 l-277 -1079 l-67 0 l-381 1434 l129 0 l281 -1090 l4 -53 l4 53 l276 1090 l72 0 l276 -1090 l4 -53 l5 53 l280 1090 l129 0 l-379 -1434 Z" /><glyph glyph-name="a" unicode="a" d="M766 0 l-68 102 q-42 -55 -105 -88.5 q-63 -33.5 -138 -33.5 l-31 0 q-62 0 -117 23.5 q-55 23.5 -96 64.5 q-41 41 -64.5 96 q-23.5 55 -23.5 117 l0 10 q0 62 23.5 117 q23.5 55 64.5 96 q41 41 96 64.5 q55 23.5 117 23.5 l260 0 l0 158 q0 37 -14 69.5 q-14 32.5 -38 56.5 q-24 24 -56.5 38 q-32.5 14 -69.5 14 l-72 0 q-37 0 -69.5 -14 q-32.5 -14 -56.5 -38 q-24 -24 -38 -56.5 q-14 -32.5 -14 -69.5 l0 -37 l-123 20 l0 10 q0 62 23.5 117 q23.5 55 64.5 96 q41 41 96 64.5 q55 23.5 117 23.5 l72 0 q62 0 117 -23.5 q55 -23.5 96 -64.5 q41 -41 64.5 -96 q23.5 -55 23.5 -117 l0 -743 l-41 0 ZM684 496 l-260 0 q-37 0 -69.5 -14 q-32.5 -14 -56.5 -38.5 q-24 -24.5 -38 -57 q-14 -32.5 -14 -69.5 l0 -43 q0 -37 14 -69.5 q14 -32.5 38 -56.5 q24 -24 56.5 -38 q32.5 -14 69.5 -14 l82 0 q37 0 69.5 14 q32.5 14 56.5 38 q24 24 38 56.5 q14 32.5 14 69.5 l0 222 Z" /><glyph glyph-name="b" unicode="b" d="M807 281 q0 -62 -23.5 -117 q-23.5 -55 -64.5 -96 q-41 -41 -96 -64.5 q-55 -23.5 -117 -23.5 l-82 0 q-62 0 -117 23.5 q-55 23.5 -96 64.5 q-41 41 -64.5 96 q-23.5 55 -23.5 117 l0 1153 l123 0 l0 -496 q42 50 101 78 q59 28 128 28 l31 0 q62 0 117 -23.5 q55 -23.5 96 -64.5 q41 -41 64.5 -96 q23.5 -55 23.5 -117 l0 -462 l0 0 ZM684 750 q0 37 -14 69.5 q-14 32.5 -38 56.5 q-24 24 -56.5 38 q-32.5 14 -69.5 14 l-82 0 q-37 0 -69.5 -14 q-32.5 -14 -56.5 -38 q-24 -24 -38 -56.5 q-14 -32.5 -14 -69.5 l0 -476 q0 -37 14 -69.5 q14 -32.5 38 -56.5 q24 -24 56.5 -38 q32.5 -14 69.5 -14 l82 0 q37 0 69.5 14 q32.5 14 56.5 38 q24 24 38 56.5 q14 32.5 14 69.5 l0 476 Z" /><glyph glyph-name="c" unicode="c" d="M807 281 q0 -62 -23.5 -117 q-23.5 -55 -64.5 -96 q-41 -41 -96 -64.5 q-55 -23.5 -117 -23.5 l-82 0 q-62 0 -117 23.5 q-55 23.5 -96 64.5 q-41 41 -64.5 96 q-23.5 55 -23.5 117 l0 462 q0 62 23.5 117 q23.5 55 64.5 96 q41 41 96 64.5 q55 23.5 117 23.5 l82 0 q62 0 117 -23.5 q55 -23.5 96 -64.5 q41 -41 64.5 -96 q23.5 -55 23.5 -117 l0 -41 l-123 -20 l0 68 q0 37 -14 69.5 q-14 32.5 -38 56.5 q-24 24 -56.5 38 q-32.5 14 -69.5 14 l-82 0 q-37 0 -69.5 -14 q-32.5 -14 -56.5 -38 q-24 -24 -38 -56.5 q-14 -32.5 -14 -69.5 l0 -476 q0 -37 14 -69.5 q14 -32.5 38 -56.5 q24 -24 56.5 -38 q32.5 -14 69.5 -14 l82 0 q37 0 69.5 14 q32.5 14 56.5 38 q24 24 38 56.5 q14 32.5 14 69.5 l0 68 l123 -20 l0 -41 l0 0 Z" /><glyph glyph-name="d" unicode="d" d="M766 0 l-68 104 q-42 -57 -105 -90.5 q-63 -33.5 -138 -33.5 l-31 0 q-62 0 -117 23.5 q-55 23.5 -96 64.5 q-41 41 -64.5 96 q-23.5 55 -23.5 117 l0 462 q0 62 23.5 117 q23.5 55 64.5 96 q41 41 96 64.5 q55 23.5 117 23.5 l31 0 q69 0 128 -28 q59 -28 101 -78 l0 496 l123 0 l0 -1434 l-41 0 ZM684 750 q0 37 -14 69.5 q-14 32.5 -38 56.5 q-24 24 -56.5 38 q-32.5 14 -69.5 14 l-82 0 q-37 0 -69.5 -14 q-32.5 -14 -56.5 -38 q-24 -24 -38 -56.5 q-14 -32.5 -14 -69.5 l0 -476 q0 -37 14 -69.5 q14 -32.5 38 -56.5 q24 -24 56.5 -38 q32.5 -14 69.5 -14 l82 0 q37 0 69.5 14 q32.5 14 56.5 38 q24 24 38 56.5 q14 32.5 14 69.5 l0 476 Z" /><glyph glyph-name="e" unicode="e" d="M807 281 q0 -62 -23.5 -117 q-23.5 -55 -64.5 -96 q-41 -41 -96 -64.5 q-55 -23.5 -117 -23.5 l-82 0 q-62 0 -117 23.5 q-55 23.5 -96 64.5 q-41 41 -64.5 96 q-23.5 55 -23.5 117 l0 462 q0 62 23.5 117 q23.5 55 64.5 96 q41 41 96 64.5 q55 23.5 117 23.5 l82 0 q62 0 117 -23.5 q55 -23.5 96 -64.5 q41 -41 64.5 -96 q23.5 -55 23.5 -117 l0 -241 l-561 0 l0 -228 q0 -37 14 -69.5 q14 -32.5 38 -56.5 q24 -24 56.5 -38 q32.5 -14 69.5 -14 l82 0 q37 0 69.5 14 q32.5 14 56.5 38 q24 24 38 56.5 q14 32.5 14 69.5 l0 68 l123 -20 l0 -41 l0 0 ZM684 750 q0 37 -14 69.5 q-14 32.5 -38 56.5 q-24 24 -56.5 38 q-32.5 14 -69.5 14 l-82 0 q-37 0 -69.5 -14 q-32.5 -14 -56.5 -38 q-24 -24 -38 -56.5 q-14 -32.5 -14 -69.5 l0 -152 l438 0 l0 152 Z" /><glyph glyph-name="g" unicode="g" d="M817 -129 q0 -62 -23.5 -114 q-23.5 -52 -64.5 -89 q-41 -37 -96 -57.5 q-55 -20.5 -117 -20.5 l-51 0 q-62 0 -117 20.5 q-55 20.5 -96 57.5 q-41 37 -64.5 89 q-23.5 52 -23.5 114 l0 4 q0 60 22 110 q22 50 60 87 q-48 29 -76.5 78.5 q-28.5 49.5 -28.5 109.5 q0 54 23 100.5 q23 46.5 63 75.5 q-48 42 -76 101 q-28 59 -28 129 l0 77 q0 62 23.5 117 q23.5 55 64.5 96 q41 41 96 64.5 q55 23.5 117 23.5 l51 0 q75 0 138.5 -33.5 q63.5 -33.5 105.5 -90.5 l67 104 l41 0 l0 -358 q0 -62 -23.5 -117 q-23.5 -55 -64.5 -96 q-41 -41 -96 -64.5 q-55 -23.5 -117 -23.5 l-178 0 q-21 0 -40 -8.5 q-19 -8.5 -33.5 -22.5 q-14.5 -14 -22.5 -33.5 q-8 -19.5 -8 -40.5 q0 -21 8 -40 q8 -19 22.5 -33.5 q14.5 -14.5 33.5 -22.5 q19 -8 40 -8 l168 0 q62 0 117 -20.5 q55 -20.5 96 -57.5 q41 -37 64.5 -89 q23.5 -52 23.5 -114 l0 -4 l0 0 ZM705 750 q0 37 -14 69.5 q-14 32.5 -38.5 56.5 q-24.5 24 -57 38 q-32.5 14 -69.5 14 l-102 0 q-37 0 -69.5 -14 q-32.5 -14 -56.5 -38 q-24 -24 -38 -56.5 q-14 -32.5 -14 -69.5 l0 -91 q0 -37 14 -69.5 q14 -32.5 38 -56.5 q24 -24 56.5 -38 q32.5 -14 69.5 -14 l102 0 q37 0 69.5 14 q32.5 14 57 38 q24.5 24 38.5 56.5 q14 32.5 14 69.5 l0 91 ZM700 -119 q0 37 -14 66.5 q-14 29.5 -38 49.5 q-24 20 -56.5 31 q-32.5 11 -69.5 11 l-63 0 q-37 0 -69.5 -11 q-32.5 -11 -56.5 -31 q-24 -20 -38 -49.5 q-14 -29.5 -14 -66.5 l0 -16 q0 -37 14 -66 q14 -29 38 -49.5 q24 -20.5 56.5 -31.5 q32.5 -11 69.5 -11 l63 0 q37 0 69.5 11 q32.5 11 56.5 31.5 q24 20.5 38 49.5 q14 29 14 66 l0 16 Z" /><glyph glyph-name="h" unicode="h" d="M684 0 l0 750 q0 37 -14 69.5 q-14 32.5 -38 56.5 q-24 24 -56.5 38 q-32.5 14 -69.5 14 l-82 0 q-37 0 -69.5 -14 q-32.5 -14 -56.5 -38 q-24 -24 -38 -56.5 q-14 -32.5 -14 -69.5 l0 -750 l-123 0 l0 1434 l123 0 l0 -496 q42 50 101 78 q59 28 128 28 l31 0 q62 0 117 -23.5 q55 -23.5 96 -64.5 q41 -41 64.5 -96 q23.5 -55 23.5 -117 l0 -743 l-123 0 Z" /><glyph glyph-name="i" unicode="i" d="M154 1270 l0 164 l143 0 l0 -164 l-143 0 ZM164 0 l0 1024 l123 0 l0 -1024 l-123 0 Z" /><glyph glyph-name="j" unicode="j" d="M154 1270 l0 164 l143 0 l0 -164 l-143 0 ZM287 -109 q0 -62 -23.5 -116.5 q-23.5 -54.5 -64.5 -95.5 q-41 -41 -96 -65 q-55 -24 -117 -24 l0 117 q37 0 69.5 14 q32.5 14 56.5 38 q24 24 38 56.5 q14 32.5 14 69.5 l0 1139 l123 0 l0 -1133 l0 0 Z" /><glyph glyph-name="k" unicode="k" d="M729 0 l-418 512 l418 512 l160 0 l-428 -512 l428 -512 l-160 0 ZM164 0 l0 1434 l123 0 l0 -1434 l-123 0 Z" /><glyph glyph-name="l" unicode="l" d="M164 0 l0 1434 l123 0 l0 -1434 l-123 0 Z" /><glyph glyph-name="m" unicode="m" d="M1204 0 l0 750 q0 37 -14 69.5 q-14 32.5 -38 56.5 q-24 24 -56.5 38 q-32.5 14 -69.5 14 l-61 0 q-37 0 -69.5 -14 q-32.5 -14 -57 -38 q-24.5 -24 -38.5 -56.5 q-14 -32.5 -14 -69.5 l0 -750 l-122 0 l0 750 q0 37 -14 69.5 q-14 32.5 -38.5 56.5 q-24.5 24 -57 38 q-32.5 14 -69.5 14 l-61 0 q-37 0 -69.5 -14 q-32.5 -14 -56.5 -38 q-24 -24 -38 -56.5 q-14 -32.5 -14 -69.5 l0 -750 l-123 0 l0 1024 l41 0 l67 -104 q42 57 105.5 90.5 q63.5 33.5 138.5 33.5 l10 0 q87 0 157 -43 q70 -43 108 -114 q19 35 47 64 q28 29 62 49.5 q34 20.5 74 32 q40 11.5 83 11.5 l10 0 q62 0 117 -23.5 q55 -23.5 96 -64.5 q41 -41 64.5 -96 q23.5 -55 23.5 -117 l0 -743 l-123 0 Z" /><glyph glyph-name="n" unicode="n" d="M684 0 l0 750 q0 37 -14 69.5 q-14 32.5 -38 56.5 q-24 24 -56.5 38 q-32.5 14 -69.5 14 l-82 0 q-37 0 -69.5 -14 q-32.5 -14 -56.5 -38 q-24 -24 -38 -56.5 q-14 -32.5 -14 -69.5 l0 -750 l-123 0 l0 1024 l41 0 l67 -104 q42 57 105.5 90.5 q63.5 33.5 138.5 33.5 l31 0 q62 0 117 -23.5 q55 -23.5 96 -64.5 q41 -41 64.5 -96 q23.5 -55 23.5 -117 l0 -743 l-123 0 Z" /><glyph glyph-name="o" unicode="o" d="M807 281 q0 -62 -23.5 -117 q-23.5 -55 -64.5 -96 q-41 -41 -96 -64.5 q-55 -23.5 -117 -23.5 l-82 0 q-62 0 -117 23.5 q-55 23.5 -96 64.5 q-41 41 -64.5 96 q-23.5 55 -23.5 117 l0 462 q0 62 23.5 117 q23.5 55 64.5 96 q41 41 96 64.5 q55 23.5 117 23.5 l82 0 q62 0 117 -23.5 q55 -23.5 96 -64.5 q41 -41 64.5 -96 q23.5 -55 23.5 -117 l0 -462 l0 0 ZM684 750 q0 37 -14 69.5 q-14 32.5 -38 56.5 q-24 24 -56.5 38 q-32.5 14 -69.5 14 l-82 0 q-37 0 -69.5 -14 q-32.5 -14 -56.5 -38 q-24 -24 -38 -56.5 q-14 -32.5 -14 -69.5 l0 -476 q0 -37 14 -69.5 q14 -32.5 38 -56.5 q24 -24 56.5 -38 q32.5 -14 69.5 -14 l82 0 q37 0 69.5 14 q32.5 14 56.5 38 q24 24 38 56.5 q14 32.5 14 69.5 l0 476 Z" /><glyph glyph-name="p" unicode="p" d="M807 281 q0 -62 -23.5 -117 q-23.5 -55 -64.5 -96 q-41 -41 -96 -64.5 q-55 -23.5 -117 -23.5 l-31 0 q-69 0 -128 28 q-59 28 -101 78 l0 -496 l-123 0 l0 1434 l41 0 l67 -104 q42 57 105.5 90.5 q63.5 33.5 138.5 33.5 l31 0 q62 0 117 -23.5 q55 -23.5 96 -64.5 q41 -41 64.5 -96 q23.5 -55 23.5 -117 l0 -462 l0 0 ZM684 750 q0 37 -14 69.5 q-14 32.5 -38 56.5 q-24 24 -56.5 38 q-32.5 14 -69.5 14 l-82 0 q-37 0 -69.5 -14 q-32.5 -14 -56.5 -38 q-24 -24 -38 -56.5 q-14 -32.5 -14 -69.5 l0 -476 q0 -37 14 -69.5 q14 -32.5 38 -56.5 q24 -24 56.5 -38 q32.5 -14 69.5 -14 l82 0 q37 0 69.5 14 q32.5 14 56.5 38 q24 24 38 56.5 q14 32.5 14 69.5 l0 476 Z" /><glyph glyph-name="r" unicode="r" d="M424 907 q-37 0 -69.5 -14 q-32.5 -14 -56.5 -38 q-24 -24 -38 -56.5 q-14 -32.5 -14 -69.5 l0 -729 l-123 0 l0 1024 l41 0 l67 -104 q42 57 105.5 90.5 q63.5 33.5 138.5 33.5 l72 0 l0 -137 l-123 0 Z" /><glyph glyph-name="s" unicode="s" d="M827 260 q0 -62 -25 -113.5 q-25 -51.5 -68 -88.5 q-43 -37 -99.5 -57.5 q-56.5 -20.5 -118.5 -20.5 l-82 0 q-62 0 -118.5 23.5 q-56.5 23.5 -99 64.5 q-42.5 41 -68 96 q-25.5 55 -25.5 117 l0 41 l123 20 l0 -68 q0 -37 15.5 -69.5 q15.5 -32.5 41.5 -56.5 q26 -24 60 -38 q34 -14 71 -14 l82 0 q37 0 71 11 q34 11 60.5 31.5 q26.5 20.5 42 49.5 q15.5 29 15.5 66 q0 55 -24 90 q-24 35 -63.5 58.5 q-39.5 23.5 -90 39 q-50.5 15.5 -103.5 31 q-53 15.5 -103.5 35.5 q-50.5 20 -90 52.5 q-39.5 32.5 -63.5 81.5 q-24 49 -24 122 q0 62 24 113.5 q24 51.5 65 88.5 q41 37 95.5 57.5 q54.5 20.5 116.5 20.5 l72 0 q62 0 117 -23.5 q55 -23.5 96 -64.5 q41 -41 64.5 -96 q23.5 -55 23.5 -117 l0 -4 l-123 -20 l0 31 q0 37 -14 69.5 q-14 32.5 -38 56.5 q-24 24 -56.5 38 q-32.5 14 -69.5 14 l-72 0 q-37 0 -69.5 -11 q-32.5 -11 -56.5 -31.5 q-24 -20.5 -38 -49.5 q-14 -29 -14 -66 q0 -53 24 -86.5 q24 -33.5 63.5 -56.5 q39.5 -23 90 -38.5 q50.5 -15.5 103 -32 q52.5 -16.5 103 -37.5 q50.5 -21 90 -54 q39.5 -33 63.5 -82.5 q24 -49.5 24 -122.5 Z" /><glyph glyph-name="t" unicode="t" d="M496 0 q-56 0 -105.5 21 q-49.5 21 -86 58 q-36.5 37 -58 86 q-21.5 49 -21.5 105 l0 637 l-184 0 l0 117 l184 0 l0 246 l123 20 l0 -266 l260 0 l0 -117 l-260 0 l0 -643 q0 -31 11.5 -57.5 q11.5 -26.5 31.5 -46.5 q20 -20 47 -31.5 q27 -11.5 58 -11.5 l112 0 l0 -117 l-112 0 Z" /><glyph glyph-name="u" unicode="u" d="M766 0 l-68 104 q-42 -57 -105 -90.5 q-63 -33.5 -138 -33.5 l-31 0 q-62 0 -117 23.5 q-55 23.5 -96 64.5 q-41 41 -64.5 96 q-23.5 55 -23.5 117 l0 743 l123 0 l0 -750 q0 -37 14 -69.5 q14 -32.5 38 -56.5 q24 -24 56.5 -38 q32.5 -14 69.5 -14 l82 0 q37 0 69.5 14 q32.5 14 56.5 38 q24 24 38 56.5 q14 32.5 14 69.5 l0 750 l123 0 l0 -1024 l-41 0 Z" /><glyph glyph-name="v" unicode="v" d="M444 0 l-61 0 l-363 1024 l123 0 l267 -776 l4 -53 l4 53 l266 776 l123 0 l-363 -1024 Z" /><glyph glyph-name="y" unicode="y" d="M289 -410 l-119 0 l182 498 l-332 936 l123 0 l267 -776 l4 -53 l4 53 l266 776 l123 0 l-518 -1434 Z" /><glyph glyph-name="asciitilde" unicode="~" d="M659 604 q28 0 49.5 11.5 q21.5 11.5 36.5 31 q15 19.5 23 46 q8 26.5 8 57.5 l107 0 q0 -54 -14 -101 q-14 -47 -42 -82 q-28 -35 -70.5 -55 q-42.5 -20 -99.5 -20 q-39 0 -71.5 11 q-32.5 11 -60.5 27 q-28 16 -53 35.5 q-25 19.5 -49 35.5 q-24 16 -47.5 27 q-23.5 11 -49.5 11 q-54 0 -85.5 -41 q-31.5 -41 -31.5 -104 l-107 0 q0 54 14 101 q14 47 42.5 82 q28.5 35 71 55 q42.5 20 98.5 20 q58 0 102.5 -23 q44.5 -23 82.5 -51 q38 -28 73 -51 q35 -23 73 -23 Z" /><glyph glyph-name="copyright" unicode="©" d="M102 717 q0 102 26.5 196 q26.5 94 74.5 176 q48 82 115 149 q67 67 149 115 q82 48 176.5 74.5 q94.5 26.5 196.5 26.5 q102 0 196 -26.5 q94 -26.5 176 -74.5 q82 -48 149 -115 q67 -67 115 -149 q48 -82 74.5 -176 q26.5 -94 26.5 -196 q0 -102 -26.5 -196.5 q-26.5 -94.5 -74.5 -176 q-48 -81.5 -115 -149 q-67 -67.5 -149 -115 q-82 -47.5 -176 -74 q-94 -26.5 -196 -26.5 q-102 0 -196.5 26.5 q-94.5 26.5 -176.5 74 q-82 47.5 -149 115 q-67 67.5 -115 149 q-48 81.5 -74.5 176 q-26.5 94.5 -26.5 196.5 ZM217 717 q0 -131 48 -246 q48 -115 132 -200.5 q84 -85.5 197.5 -135 q113.5 -49.5 245.5 -49.5 q131 0 244.5 49.5 q113.5 49.5 197.5 135 q84 85.5 132 200.5 q48 115 48 246 q0 131 -48 246 q-48 115 -132 200.5 q-84 85.5 -197.5 135 q-113.5 49.5 -244.5 49.5 q-132 0 -245.5 -49.5 q-113.5 -49.5 -197.5 -135 q-84 -85.5 -132 -200.5 q-48 -115 -48 -246 ZM1100 485 q0 -48 -18 -89.5 q-18 -41.5 -49.5 -72.5 q-31.5 -31 -73 -49 q-41.5 -18 -89.5 -18 l-61 0 q-48 0 -89.5 18 q-41.5 18 -72.5 49 q-31 31 -49 72.5 q-18 41.5 -18 89.5 l0 463 q0 48 18 89.5 q18 41.5 49 73 q31 31.5 72.5 49.5 q41.5 18 89.5 18 l61 0 q48 0 89.5 -18 q41.5 -18 73 -49.5 q31.5 -31.5 49.5 -73 q18 -41.5 18 -89.5 l0 -51 l-115 -18 l0 69 q0 25 -9.5 46.5 q-9.5 21.5 -25.5 37.5 q-16 16 -37.5 25.5 q-21.5 9.5 -46.5 9.5 l-53 0 q-24 0 -46 -9.5 q-22 -9.5 -38 -25.5 q-16 -16 -25.5 -37.5 q-9.5 -21.5 -9.5 -46.5 l0 -463 q0 -24 9.5 -45.5 q9.5 -21.5 25.5 -37.5 q16 -16 38 -25.5 q22 -9.5 46 -9.5 l53 0 q25 0 46.5 9.5 q21.5 9.5 37.5 25.5 q16 16 25.5 37.5 q9.5 21.5 9.5 45.5 l0 70 l115 -18 l0 -52 l0 0 Z" /><glyph glyph-name="quotedblleft" unicode="&#x201c;" d="M451 1434 l51 0 l0 -441 l-154 0 l103 441 ZM205 1434 l51 0 l0 -441 l-154 0 l103 441 Z" /><glyph glyph-name="quotedblright" unicode="&#x201d;" d="M195 993 l-52 0 l0 441 l154 0 l-102 -441 ZM440 993 l-51 0 l0 441 l154 0 l-103 -441 Z" /></font>
</defs>
</svg>
